<svg xmlns="http://www.w3.org/2000/svg" xmlns:xlink="http://www.w3.org/1999/xlink" width="250" height="250" viewBox="0 0 250 250">
  <defs>
    <clipPath id="clip-path">
      <rect width="250" height="250" fill="none"/>
    </clipPath>
  </defs>
  <g id="Repeat_Grid_1" data-name="Repeat Grid 1" clip-path="url(#clip-path)">
    <g transform="translate(-119 -119)">
      <circle id="Ellipse_211" data-name="Ellipse 211" cx="3" cy="3" r="3" transform="translate(119 125) rotate(-90)" fill="#00304d" opacity="0.222"/>
    </g>
    <g transform="translate(-102 -119)">
      <circle id="Ellipse_211-2" data-name="Ellipse 211" cx="3" cy="3" r="3" transform="translate(119 125) rotate(-90)" fill="#00304d" opacity="0.222"/>
    </g>
    <g transform="translate(-85 -119)">
      <circle id="Ellipse_211-3" data-name="Ellipse 211" cx="3" cy="3" r="3" transform="translate(119 125) rotate(-90)" fill="#00304d" opacity="0.222"/>
    </g>
    <g transform="translate(-68 -119)">
      <circle id="Ellipse_211-4" data-name="Ellipse 211" cx="3" cy="3" r="3" transform="translate(119 125) rotate(-90)" fill="#00304d" opacity="0.222"/>
    </g>
    <g transform="translate(-51 -119)">
      <circle id="Ellipse_211-5" data-name="Ellipse 211" cx="3" cy="3" r="3" transform="translate(119 125) rotate(-90)" fill="#00304d" opacity="0.222"/>
    </g>
    <g transform="translate(-34 -119)">
      <circle id="Ellipse_211-6" data-name="Ellipse 211" cx="3" cy="3" r="3" transform="translate(119 125) rotate(-90)" fill="#00304d" opacity="0.222"/>
    </g>
    <g transform="translate(-17 -119)">
      <circle id="Ellipse_211-7" data-name="Ellipse 211" cx="3" cy="3" r="3" transform="translate(119 125) rotate(-90)" fill="#00304d" opacity="0.222"/>
    </g>
    <g transform="translate(0 -119)">
      <circle id="Ellipse_211-8" data-name="Ellipse 211" cx="3" cy="3" r="3" transform="translate(119 125) rotate(-90)" fill="#00304d" opacity="0.222"/>
    </g>
    <g transform="translate(17 -119)">
      <circle id="Ellipse_211-9" data-name="Ellipse 211" cx="3" cy="3" r="3" transform="translate(119 125) rotate(-90)" fill="#00304d" opacity="0.222"/>
    </g>
    <g transform="translate(34 -119)">
      <circle id="Ellipse_211-10" data-name="Ellipse 211" cx="3" cy="3" r="3" transform="translate(119 125) rotate(-90)" fill="#00304d" opacity="0.222"/>
    </g>
    <g transform="translate(51 -119)">
      <circle id="Ellipse_211-11" data-name="Ellipse 211" cx="3" cy="3" r="3" transform="translate(119 125) rotate(-90)" fill="#00304d" opacity="0.222"/>
    </g>
    <g transform="translate(68 -119)">
      <circle id="Ellipse_211-12" data-name="Ellipse 211" cx="3" cy="3" r="3" transform="translate(119 125) rotate(-90)" fill="#00304d" opacity="0.222"/>
    </g>
    <g transform="translate(85 -119)">
      <circle id="Ellipse_211-13" data-name="Ellipse 211" cx="3" cy="3" r="3" transform="translate(119 125) rotate(-90)" fill="#00304d" opacity="0.222"/>
    </g>
    <g transform="translate(102 -119)">
      <circle id="Ellipse_211-14" data-name="Ellipse 211" cx="3" cy="3" r="3" transform="translate(119 125) rotate(-90)" fill="#00304d" opacity="0.222"/>
    </g>
    <g transform="translate(119 -119)">
      <circle id="Ellipse_211-15" data-name="Ellipse 211" cx="3" cy="3" r="3" transform="translate(119 125) rotate(-90)" fill="#00304d" opacity="0.222"/>
    </g>
    <g transform="translate(-119 -102)">
      <circle id="Ellipse_211-16" data-name="Ellipse 211" cx="3" cy="3" r="3" transform="translate(119 125) rotate(-90)" fill="#00304d" opacity="0.222"/>
    </g>
    <g transform="translate(-102 -102)">
      <circle id="Ellipse_211-17" data-name="Ellipse 211" cx="3" cy="3" r="3" transform="translate(119 125) rotate(-90)" fill="#00304d" opacity="0.222"/>
    </g>
    <g transform="translate(-85 -102)">
      <circle id="Ellipse_211-18" data-name="Ellipse 211" cx="3" cy="3" r="3" transform="translate(119 125) rotate(-90)" fill="#00304d" opacity="0.222"/>
    </g>
    <g transform="translate(-68 -102)">
      <circle id="Ellipse_211-19" data-name="Ellipse 211" cx="3" cy="3" r="3" transform="translate(119 125) rotate(-90)" fill="#00304d" opacity="0.222"/>
    </g>
    <g transform="translate(-51 -102)">
      <circle id="Ellipse_211-20" data-name="Ellipse 211" cx="3" cy="3" r="3" transform="translate(119 125) rotate(-90)" fill="#00304d" opacity="0.222"/>
    </g>
    <g transform="translate(-34 -102)">
      <circle id="Ellipse_211-21" data-name="Ellipse 211" cx="3" cy="3" r="3" transform="translate(119 125) rotate(-90)" fill="#00304d" opacity="0.222"/>
    </g>
    <g transform="translate(-17 -102)">
      <circle id="Ellipse_211-22" data-name="Ellipse 211" cx="3" cy="3" r="3" transform="translate(119 125) rotate(-90)" fill="#00304d" opacity="0.222"/>
    </g>
    <g transform="translate(0 -102)">
      <circle id="Ellipse_211-23" data-name="Ellipse 211" cx="3" cy="3" r="3" transform="translate(119 125) rotate(-90)" fill="#00304d" opacity="0.222"/>
    </g>
    <g transform="translate(17 -102)">
      <circle id="Ellipse_211-24" data-name="Ellipse 211" cx="3" cy="3" r="3" transform="translate(119 125) rotate(-90)" fill="#00304d" opacity="0.222"/>
    </g>
    <g transform="translate(34 -102)">
      <circle id="Ellipse_211-25" data-name="Ellipse 211" cx="3" cy="3" r="3" transform="translate(119 125) rotate(-90)" fill="#00304d" opacity="0.222"/>
    </g>
    <g transform="translate(51 -102)">
      <circle id="Ellipse_211-26" data-name="Ellipse 211" cx="3" cy="3" r="3" transform="translate(119 125) rotate(-90)" fill="#00304d" opacity="0.222"/>
    </g>
    <g transform="translate(68 -102)">
      <circle id="Ellipse_211-27" data-name="Ellipse 211" cx="3" cy="3" r="3" transform="translate(119 125) rotate(-90)" fill="#00304d" opacity="0.222"/>
    </g>
    <g transform="translate(85 -102)">
      <circle id="Ellipse_211-28" data-name="Ellipse 211" cx="3" cy="3" r="3" transform="translate(119 125) rotate(-90)" fill="#00304d" opacity="0.222"/>
    </g>
    <g transform="translate(102 -102)">
      <circle id="Ellipse_211-29" data-name="Ellipse 211" cx="3" cy="3" r="3" transform="translate(119 125) rotate(-90)" fill="#00304d" opacity="0.222"/>
    </g>
    <g transform="translate(119 -102)">
      <circle id="Ellipse_211-30" data-name="Ellipse 211" cx="3" cy="3" r="3" transform="translate(119 125) rotate(-90)" fill="#00304d" opacity="0.222"/>
    </g>
    <g transform="translate(-119 -85)">
      <circle id="Ellipse_211-31" data-name="Ellipse 211" cx="3" cy="3" r="3" transform="translate(119 125) rotate(-90)" fill="#00304d" opacity="0.222"/>
    </g>
    <g transform="translate(-102 -85)">
      <circle id="Ellipse_211-32" data-name="Ellipse 211" cx="3" cy="3" r="3" transform="translate(119 125) rotate(-90)" fill="#00304d" opacity="0.222"/>
    </g>
    <g transform="translate(-85 -85)">
      <circle id="Ellipse_211-33" data-name="Ellipse 211" cx="3" cy="3" r="3" transform="translate(119 125) rotate(-90)" fill="#00304d" opacity="0.222"/>
    </g>
    <g transform="translate(-68 -85)">
      <circle id="Ellipse_211-34" data-name="Ellipse 211" cx="3" cy="3" r="3" transform="translate(119 125) rotate(-90)" fill="#00304d" opacity="0.222"/>
    </g>
    <g transform="translate(-51 -85)">
      <circle id="Ellipse_211-35" data-name="Ellipse 211" cx="3" cy="3" r="3" transform="translate(119 125) rotate(-90)" fill="#00304d" opacity="0.222"/>
    </g>
    <g transform="translate(-34 -85)">
      <circle id="Ellipse_211-36" data-name="Ellipse 211" cx="3" cy="3" r="3" transform="translate(119 125) rotate(-90)" fill="#00304d" opacity="0.222"/>
    </g>
    <g transform="translate(-17 -85)">
      <circle id="Ellipse_211-37" data-name="Ellipse 211" cx="3" cy="3" r="3" transform="translate(119 125) rotate(-90)" fill="#00304d" opacity="0.222"/>
    </g>
    <g transform="translate(0 -85)">
      <circle id="Ellipse_211-38" data-name="Ellipse 211" cx="3" cy="3" r="3" transform="translate(119 125) rotate(-90)" fill="#00304d" opacity="0.222"/>
    </g>
    <g transform="translate(17 -85)">
      <circle id="Ellipse_211-39" data-name="Ellipse 211" cx="3" cy="3" r="3" transform="translate(119 125) rotate(-90)" fill="#00304d" opacity="0.222"/>
    </g>
    <g transform="translate(34 -85)">
      <circle id="Ellipse_211-40" data-name="Ellipse 211" cx="3" cy="3" r="3" transform="translate(119 125) rotate(-90)" fill="#00304d" opacity="0.222"/>
    </g>
    <g transform="translate(51 -85)">
      <circle id="Ellipse_211-41" data-name="Ellipse 211" cx="3" cy="3" r="3" transform="translate(119 125) rotate(-90)" fill="#00304d" opacity="0.222"/>
    </g>
    <g transform="translate(68 -85)">
      <circle id="Ellipse_211-42" data-name="Ellipse 211" cx="3" cy="3" r="3" transform="translate(119 125) rotate(-90)" fill="#00304d" opacity="0.222"/>
    </g>
    <g transform="translate(85 -85)">
      <circle id="Ellipse_211-43" data-name="Ellipse 211" cx="3" cy="3" r="3" transform="translate(119 125) rotate(-90)" fill="#00304d" opacity="0.222"/>
    </g>
    <g transform="translate(102 -85)">
      <circle id="Ellipse_211-44" data-name="Ellipse 211" cx="3" cy="3" r="3" transform="translate(119 125) rotate(-90)" fill="#00304d" opacity="0.222"/>
    </g>
    <g transform="translate(119 -85)">
      <circle id="Ellipse_211-45" data-name="Ellipse 211" cx="3" cy="3" r="3" transform="translate(119 125) rotate(-90)" fill="#00304d" opacity="0.222"/>
    </g>
    <g transform="translate(-119 -68)">
      <circle id="Ellipse_211-46" data-name="Ellipse 211" cx="3" cy="3" r="3" transform="translate(119 125) rotate(-90)" fill="#00304d" opacity="0.222"/>
    </g>
    <g transform="translate(-102 -68)">
      <circle id="Ellipse_211-47" data-name="Ellipse 211" cx="3" cy="3" r="3" transform="translate(119 125) rotate(-90)" fill="#00304d" opacity="0.222"/>
    </g>
    <g transform="translate(-85 -68)">
      <circle id="Ellipse_211-48" data-name="Ellipse 211" cx="3" cy="3" r="3" transform="translate(119 125) rotate(-90)" fill="#00304d" opacity="0.222"/>
    </g>
    <g transform="translate(-68 -68)">
      <circle id="Ellipse_211-49" data-name="Ellipse 211" cx="3" cy="3" r="3" transform="translate(119 125) rotate(-90)" fill="#00304d" opacity="0.222"/>
    </g>
    <g transform="translate(-51 -68)">
      <circle id="Ellipse_211-50" data-name="Ellipse 211" cx="3" cy="3" r="3" transform="translate(119 125) rotate(-90)" fill="#00304d" opacity="0.222"/>
    </g>
    <g transform="translate(-34 -68)">
      <circle id="Ellipse_211-51" data-name="Ellipse 211" cx="3" cy="3" r="3" transform="translate(119 125) rotate(-90)" fill="#00304d" opacity="0.222"/>
    </g>
    <g transform="translate(-17 -68)">
      <circle id="Ellipse_211-52" data-name="Ellipse 211" cx="3" cy="3" r="3" transform="translate(119 125) rotate(-90)" fill="#00304d" opacity="0.222"/>
    </g>
    <g transform="translate(0 -68)">
      <circle id="Ellipse_211-53" data-name="Ellipse 211" cx="3" cy="3" r="3" transform="translate(119 125) rotate(-90)" fill="#00304d" opacity="0.222"/>
    </g>
    <g transform="translate(17 -68)">
      <circle id="Ellipse_211-54" data-name="Ellipse 211" cx="3" cy="3" r="3" transform="translate(119 125) rotate(-90)" fill="#00304d" opacity="0.222"/>
    </g>
    <g transform="translate(34 -68)">
      <circle id="Ellipse_211-55" data-name="Ellipse 211" cx="3" cy="3" r="3" transform="translate(119 125) rotate(-90)" fill="#00304d" opacity="0.222"/>
    </g>
    <g transform="translate(51 -68)">
      <circle id="Ellipse_211-56" data-name="Ellipse 211" cx="3" cy="3" r="3" transform="translate(119 125) rotate(-90)" fill="#00304d" opacity="0.222"/>
    </g>
    <g transform="translate(68 -68)">
      <circle id="Ellipse_211-57" data-name="Ellipse 211" cx="3" cy="3" r="3" transform="translate(119 125) rotate(-90)" fill="#00304d" opacity="0.222"/>
    </g>
    <g transform="translate(85 -68)">
      <circle id="Ellipse_211-58" data-name="Ellipse 211" cx="3" cy="3" r="3" transform="translate(119 125) rotate(-90)" fill="#00304d" opacity="0.222"/>
    </g>
    <g transform="translate(102 -68)">
      <circle id="Ellipse_211-59" data-name="Ellipse 211" cx="3" cy="3" r="3" transform="translate(119 125) rotate(-90)" fill="#00304d" opacity="0.222"/>
    </g>
    <g transform="translate(119 -68)">
      <circle id="Ellipse_211-60" data-name="Ellipse 211" cx="3" cy="3" r="3" transform="translate(119 125) rotate(-90)" fill="#00304d" opacity="0.222"/>
    </g>
    <g transform="translate(-119 -51)">
      <circle id="Ellipse_211-61" data-name="Ellipse 211" cx="3" cy="3" r="3" transform="translate(119 125) rotate(-90)" fill="#00304d" opacity="0.222"/>
    </g>
    <g transform="translate(-102 -51)">
      <circle id="Ellipse_211-62" data-name="Ellipse 211" cx="3" cy="3" r="3" transform="translate(119 125) rotate(-90)" fill="#00304d" opacity="0.222"/>
    </g>
    <g transform="translate(-85 -51)">
      <circle id="Ellipse_211-63" data-name="Ellipse 211" cx="3" cy="3" r="3" transform="translate(119 125) rotate(-90)" fill="#00304d" opacity="0.222"/>
    </g>
    <g transform="translate(-68 -51)">
      <circle id="Ellipse_211-64" data-name="Ellipse 211" cx="3" cy="3" r="3" transform="translate(119 125) rotate(-90)" fill="#00304d" opacity="0.222"/>
    </g>
    <g transform="translate(-51 -51)">
      <circle id="Ellipse_211-65" data-name="Ellipse 211" cx="3" cy="3" r="3" transform="translate(119 125) rotate(-90)" fill="#00304d" opacity="0.222"/>
    </g>
    <g transform="translate(-34 -51)">
      <circle id="Ellipse_211-66" data-name="Ellipse 211" cx="3" cy="3" r="3" transform="translate(119 125) rotate(-90)" fill="#00304d" opacity="0.222"/>
    </g>
    <g transform="translate(-17 -51)">
      <circle id="Ellipse_211-67" data-name="Ellipse 211" cx="3" cy="3" r="3" transform="translate(119 125) rotate(-90)" fill="#00304d" opacity="0.222"/>
    </g>
    <g transform="translate(0 -51)">
      <circle id="Ellipse_211-68" data-name="Ellipse 211" cx="3" cy="3" r="3" transform="translate(119 125) rotate(-90)" fill="#00304d" opacity="0.222"/>
    </g>
    <g transform="translate(17 -51)">
      <circle id="Ellipse_211-69" data-name="Ellipse 211" cx="3" cy="3" r="3" transform="translate(119 125) rotate(-90)" fill="#00304d" opacity="0.222"/>
    </g>
    <g transform="translate(34 -51)">
      <circle id="Ellipse_211-70" data-name="Ellipse 211" cx="3" cy="3" r="3" transform="translate(119 125) rotate(-90)" fill="#00304d" opacity="0.222"/>
    </g>
    <g transform="translate(51 -51)">
      <circle id="Ellipse_211-71" data-name="Ellipse 211" cx="3" cy="3" r="3" transform="translate(119 125) rotate(-90)" fill="#00304d" opacity="0.222"/>
    </g>
    <g transform="translate(68 -51)">
      <circle id="Ellipse_211-72" data-name="Ellipse 211" cx="3" cy="3" r="3" transform="translate(119 125) rotate(-90)" fill="#00304d" opacity="0.222"/>
    </g>
    <g transform="translate(85 -51)">
      <circle id="Ellipse_211-73" data-name="Ellipse 211" cx="3" cy="3" r="3" transform="translate(119 125) rotate(-90)" fill="#00304d" opacity="0.222"/>
    </g>
    <g transform="translate(102 -51)">
      <circle id="Ellipse_211-74" data-name="Ellipse 211" cx="3" cy="3" r="3" transform="translate(119 125) rotate(-90)" fill="#00304d" opacity="0.222"/>
    </g>
    <g transform="translate(119 -51)">
      <circle id="Ellipse_211-75" data-name="Ellipse 211" cx="3" cy="3" r="3" transform="translate(119 125) rotate(-90)" fill="#00304d" opacity="0.222"/>
    </g>
    <g transform="translate(-119 -34)">
      <circle id="Ellipse_211-76" data-name="Ellipse 211" cx="3" cy="3" r="3" transform="translate(119 125) rotate(-90)" fill="#00304d" opacity="0.222"/>
    </g>
    <g transform="translate(-102 -34)">
      <circle id="Ellipse_211-77" data-name="Ellipse 211" cx="3" cy="3" r="3" transform="translate(119 125) rotate(-90)" fill="#00304d" opacity="0.222"/>
    </g>
    <g transform="translate(-85 -34)">
      <circle id="Ellipse_211-78" data-name="Ellipse 211" cx="3" cy="3" r="3" transform="translate(119 125) rotate(-90)" fill="#00304d" opacity="0.222"/>
    </g>
    <g transform="translate(-68 -34)">
      <circle id="Ellipse_211-79" data-name="Ellipse 211" cx="3" cy="3" r="3" transform="translate(119 125) rotate(-90)" fill="#00304d" opacity="0.222"/>
    </g>
    <g transform="translate(-51 -34)">
      <circle id="Ellipse_211-80" data-name="Ellipse 211" cx="3" cy="3" r="3" transform="translate(119 125) rotate(-90)" fill="#00304d" opacity="0.222"/>
    </g>
    <g transform="translate(-34 -34)">
      <circle id="Ellipse_211-81" data-name="Ellipse 211" cx="3" cy="3" r="3" transform="translate(119 125) rotate(-90)" fill="#00304d" opacity="0.222"/>
    </g>
    <g transform="translate(-17 -34)">
      <circle id="Ellipse_211-82" data-name="Ellipse 211" cx="3" cy="3" r="3" transform="translate(119 125) rotate(-90)" fill="#00304d" opacity="0.222"/>
    </g>
    <g transform="translate(0 -34)">
      <circle id="Ellipse_211-83" data-name="Ellipse 211" cx="3" cy="3" r="3" transform="translate(119 125) rotate(-90)" fill="#00304d" opacity="0.222"/>
    </g>
    <g transform="translate(17 -34)">
      <circle id="Ellipse_211-84" data-name="Ellipse 211" cx="3" cy="3" r="3" transform="translate(119 125) rotate(-90)" fill="#00304d" opacity="0.222"/>
    </g>
    <g transform="translate(34 -34)">
      <circle id="Ellipse_211-85" data-name="Ellipse 211" cx="3" cy="3" r="3" transform="translate(119 125) rotate(-90)" fill="#00304d" opacity="0.222"/>
    </g>
    <g transform="translate(51 -34)">
      <circle id="Ellipse_211-86" data-name="Ellipse 211" cx="3" cy="3" r="3" transform="translate(119 125) rotate(-90)" fill="#00304d" opacity="0.222"/>
    </g>
    <g transform="translate(68 -34)">
      <circle id="Ellipse_211-87" data-name="Ellipse 211" cx="3" cy="3" r="3" transform="translate(119 125) rotate(-90)" fill="#00304d" opacity="0.222"/>
    </g>
    <g transform="translate(85 -34)">
      <circle id="Ellipse_211-88" data-name="Ellipse 211" cx="3" cy="3" r="3" transform="translate(119 125) rotate(-90)" fill="#00304d" opacity="0.222"/>
    </g>
    <g transform="translate(102 -34)">
      <circle id="Ellipse_211-89" data-name="Ellipse 211" cx="3" cy="3" r="3" transform="translate(119 125) rotate(-90)" fill="#00304d" opacity="0.222"/>
    </g>
    <g transform="translate(119 -34)">
      <circle id="Ellipse_211-90" data-name="Ellipse 211" cx="3" cy="3" r="3" transform="translate(119 125) rotate(-90)" fill="#00304d" opacity="0.222"/>
    </g>
    <g transform="translate(-119 -17)">
      <circle id="Ellipse_211-91" data-name="Ellipse 211" cx="3" cy="3" r="3" transform="translate(119 125) rotate(-90)" fill="#00304d" opacity="0.222"/>
    </g>
    <g transform="translate(-102 -17)">
      <circle id="Ellipse_211-92" data-name="Ellipse 211" cx="3" cy="3" r="3" transform="translate(119 125) rotate(-90)" fill="#00304d" opacity="0.222"/>
    </g>
    <g transform="translate(-85 -17)">
      <circle id="Ellipse_211-93" data-name="Ellipse 211" cx="3" cy="3" r="3" transform="translate(119 125) rotate(-90)" fill="#00304d" opacity="0.222"/>
    </g>
    <g transform="translate(-68 -17)">
      <circle id="Ellipse_211-94" data-name="Ellipse 211" cx="3" cy="3" r="3" transform="translate(119 125) rotate(-90)" fill="#00304d" opacity="0.222"/>
    </g>
    <g transform="translate(-51 -17)">
      <circle id="Ellipse_211-95" data-name="Ellipse 211" cx="3" cy="3" r="3" transform="translate(119 125) rotate(-90)" fill="#00304d" opacity="0.222"/>
    </g>
    <g transform="translate(-34 -17)">
      <circle id="Ellipse_211-96" data-name="Ellipse 211" cx="3" cy="3" r="3" transform="translate(119 125) rotate(-90)" fill="#00304d" opacity="0.222"/>
    </g>
    <g transform="translate(-17 -17)">
      <circle id="Ellipse_211-97" data-name="Ellipse 211" cx="3" cy="3" r="3" transform="translate(119 125) rotate(-90)" fill="#00304d" opacity="0.222"/>
    </g>
    <g transform="translate(0 -17)">
      <circle id="Ellipse_211-98" data-name="Ellipse 211" cx="3" cy="3" r="3" transform="translate(119 125) rotate(-90)" fill="#00304d" opacity="0.222"/>
    </g>
    <g transform="translate(17 -17)">
      <circle id="Ellipse_211-99" data-name="Ellipse 211" cx="3" cy="3" r="3" transform="translate(119 125) rotate(-90)" fill="#00304d" opacity="0.222"/>
    </g>
    <g transform="translate(34 -17)">
      <circle id="Ellipse_211-100" data-name="Ellipse 211" cx="3" cy="3" r="3" transform="translate(119 125) rotate(-90)" fill="#00304d" opacity="0.222"/>
    </g>
    <g transform="translate(51 -17)">
      <circle id="Ellipse_211-101" data-name="Ellipse 211" cx="3" cy="3" r="3" transform="translate(119 125) rotate(-90)" fill="#00304d" opacity="0.222"/>
    </g>
    <g transform="translate(68 -17)">
      <circle id="Ellipse_211-102" data-name="Ellipse 211" cx="3" cy="3" r="3" transform="translate(119 125) rotate(-90)" fill="#00304d" opacity="0.222"/>
    </g>
    <g transform="translate(85 -17)">
      <circle id="Ellipse_211-103" data-name="Ellipse 211" cx="3" cy="3" r="3" transform="translate(119 125) rotate(-90)" fill="#00304d" opacity="0.222"/>
    </g>
    <g transform="translate(102 -17)">
      <circle id="Ellipse_211-104" data-name="Ellipse 211" cx="3" cy="3" r="3" transform="translate(119 125) rotate(-90)" fill="#00304d" opacity="0.222"/>
    </g>
    <g transform="translate(119 -17)">
      <circle id="Ellipse_211-105" data-name="Ellipse 211" cx="3" cy="3" r="3" transform="translate(119 125) rotate(-90)" fill="#00304d" opacity="0.222"/>
    </g>
    <g transform="translate(-119)">
      <circle id="Ellipse_211-106" data-name="Ellipse 211" cx="3" cy="3" r="3" transform="translate(119 125) rotate(-90)" fill="#00304d" opacity="0.222"/>
    </g>
    <g transform="translate(-102)">
      <circle id="Ellipse_211-107" data-name="Ellipse 211" cx="3" cy="3" r="3" transform="translate(119 125) rotate(-90)" fill="#00304d" opacity="0.222"/>
    </g>
    <g transform="translate(-85)">
      <circle id="Ellipse_211-108" data-name="Ellipse 211" cx="3" cy="3" r="3" transform="translate(119 125) rotate(-90)" fill="#00304d" opacity="0.222"/>
    </g>
    <g transform="translate(-68)">
      <circle id="Ellipse_211-109" data-name="Ellipse 211" cx="3" cy="3" r="3" transform="translate(119 125) rotate(-90)" fill="#00304d" opacity="0.222"/>
    </g>
    <g transform="translate(-51)">
      <circle id="Ellipse_211-110" data-name="Ellipse 211" cx="3" cy="3" r="3" transform="translate(119 125) rotate(-90)" fill="#00304d" opacity="0.222"/>
    </g>
    <g transform="translate(-34)">
      <circle id="Ellipse_211-111" data-name="Ellipse 211" cx="3" cy="3" r="3" transform="translate(119 125) rotate(-90)" fill="#00304d" opacity="0.222"/>
    </g>
    <g transform="translate(-17)">
      <circle id="Ellipse_211-112" data-name="Ellipse 211" cx="3" cy="3" r="3" transform="translate(119 125) rotate(-90)" fill="#00304d" opacity="0.222"/>
    </g>
    <circle id="Ellipse_211-113" data-name="Ellipse 211" cx="3" cy="3" r="3" transform="translate(119 125) rotate(-90)" fill="#00304d" opacity="0.222"/>
    <g transform="translate(17)">
      <circle id="Ellipse_211-114" data-name="Ellipse 211" cx="3" cy="3" r="3" transform="translate(119 125) rotate(-90)" fill="#00304d" opacity="0.222"/>
    </g>
    <g transform="translate(34)">
      <circle id="Ellipse_211-115" data-name="Ellipse 211" cx="3" cy="3" r="3" transform="translate(119 125) rotate(-90)" fill="#00304d" opacity="0.222"/>
    </g>
    <g transform="translate(51)">
      <circle id="Ellipse_211-116" data-name="Ellipse 211" cx="3" cy="3" r="3" transform="translate(119 125) rotate(-90)" fill="#00304d" opacity="0.222"/>
    </g>
    <g transform="translate(68)">
      <circle id="Ellipse_211-117" data-name="Ellipse 211" cx="3" cy="3" r="3" transform="translate(119 125) rotate(-90)" fill="#00304d" opacity="0.222"/>
    </g>
    <g transform="translate(85)">
      <circle id="Ellipse_211-118" data-name="Ellipse 211" cx="3" cy="3" r="3" transform="translate(119 125) rotate(-90)" fill="#00304d" opacity="0.222"/>
    </g>
    <g transform="translate(102)">
      <circle id="Ellipse_211-119" data-name="Ellipse 211" cx="3" cy="3" r="3" transform="translate(119 125) rotate(-90)" fill="#00304d" opacity="0.222"/>
    </g>
    <g transform="translate(119)">
      <circle id="Ellipse_211-120" data-name="Ellipse 211" cx="3" cy="3" r="3" transform="translate(119 125) rotate(-90)" fill="#00304d" opacity="0.222"/>
    </g>
    <g transform="translate(-119 17)">
      <circle id="Ellipse_211-121" data-name="Ellipse 211" cx="3" cy="3" r="3" transform="translate(119 125) rotate(-90)" fill="#00304d" opacity="0.222"/>
    </g>
    <g transform="translate(-102 17)">
      <circle id="Ellipse_211-122" data-name="Ellipse 211" cx="3" cy="3" r="3" transform="translate(119 125) rotate(-90)" fill="#00304d" opacity="0.222"/>
    </g>
    <g transform="translate(-85 17)">
      <circle id="Ellipse_211-123" data-name="Ellipse 211" cx="3" cy="3" r="3" transform="translate(119 125) rotate(-90)" fill="#00304d" opacity="0.222"/>
    </g>
    <g transform="translate(-68 17)">
      <circle id="Ellipse_211-124" data-name="Ellipse 211" cx="3" cy="3" r="3" transform="translate(119 125) rotate(-90)" fill="#00304d" opacity="0.222"/>
    </g>
    <g transform="translate(-51 17)">
      <circle id="Ellipse_211-125" data-name="Ellipse 211" cx="3" cy="3" r="3" transform="translate(119 125) rotate(-90)" fill="#00304d" opacity="0.222"/>
    </g>
    <g transform="translate(-34 17)">
      <circle id="Ellipse_211-126" data-name="Ellipse 211" cx="3" cy="3" r="3" transform="translate(119 125) rotate(-90)" fill="#00304d" opacity="0.222"/>
    </g>
    <g transform="translate(-17 17)">
      <circle id="Ellipse_211-127" data-name="Ellipse 211" cx="3" cy="3" r="3" transform="translate(119 125) rotate(-90)" fill="#00304d" opacity="0.222"/>
    </g>
    <g transform="translate(0 17)">
      <circle id="Ellipse_211-128" data-name="Ellipse 211" cx="3" cy="3" r="3" transform="translate(119 125) rotate(-90)" fill="#00304d" opacity="0.222"/>
    </g>
    <g transform="translate(17 17)">
      <circle id="Ellipse_211-129" data-name="Ellipse 211" cx="3" cy="3" r="3" transform="translate(119 125) rotate(-90)" fill="#00304d" opacity="0.222"/>
    </g>
    <g transform="translate(34 17)">
      <circle id="Ellipse_211-130" data-name="Ellipse 211" cx="3" cy="3" r="3" transform="translate(119 125) rotate(-90)" fill="#00304d" opacity="0.222"/>
    </g>
    <g transform="translate(51 17)">
      <circle id="Ellipse_211-131" data-name="Ellipse 211" cx="3" cy="3" r="3" transform="translate(119 125) rotate(-90)" fill="#00304d" opacity="0.222"/>
    </g>
    <g transform="translate(68 17)">
      <circle id="Ellipse_211-132" data-name="Ellipse 211" cx="3" cy="3" r="3" transform="translate(119 125) rotate(-90)" fill="#00304d" opacity="0.222"/>
    </g>
    <g transform="translate(85 17)">
      <circle id="Ellipse_211-133" data-name="Ellipse 211" cx="3" cy="3" r="3" transform="translate(119 125) rotate(-90)" fill="#00304d" opacity="0.222"/>
    </g>
    <g transform="translate(102 17)">
      <circle id="Ellipse_211-134" data-name="Ellipse 211" cx="3" cy="3" r="3" transform="translate(119 125) rotate(-90)" fill="#00304d" opacity="0.222"/>
    </g>
    <g transform="translate(119 17)">
      <circle id="Ellipse_211-135" data-name="Ellipse 211" cx="3" cy="3" r="3" transform="translate(119 125) rotate(-90)" fill="#00304d" opacity="0.222"/>
    </g>
    <g transform="translate(-119 34)">
      <circle id="Ellipse_211-136" data-name="Ellipse 211" cx="3" cy="3" r="3" transform="translate(119 125) rotate(-90)" fill="#00304d" opacity="0.222"/>
    </g>
    <g transform="translate(-102 34)">
      <circle id="Ellipse_211-137" data-name="Ellipse 211" cx="3" cy="3" r="3" transform="translate(119 125) rotate(-90)" fill="#00304d" opacity="0.222"/>
    </g>
    <g transform="translate(-85 34)">
      <circle id="Ellipse_211-138" data-name="Ellipse 211" cx="3" cy="3" r="3" transform="translate(119 125) rotate(-90)" fill="#00304d" opacity="0.222"/>
    </g>
    <g transform="translate(-68 34)">
      <circle id="Ellipse_211-139" data-name="Ellipse 211" cx="3" cy="3" r="3" transform="translate(119 125) rotate(-90)" fill="#00304d" opacity="0.222"/>
    </g>
    <g transform="translate(-51 34)">
      <circle id="Ellipse_211-140" data-name="Ellipse 211" cx="3" cy="3" r="3" transform="translate(119 125) rotate(-90)" fill="#00304d" opacity="0.222"/>
    </g>
    <g transform="translate(-34 34)">
      <circle id="Ellipse_211-141" data-name="Ellipse 211" cx="3" cy="3" r="3" transform="translate(119 125) rotate(-90)" fill="#00304d" opacity="0.222"/>
    </g>
    <g transform="translate(-17 34)">
      <circle id="Ellipse_211-142" data-name="Ellipse 211" cx="3" cy="3" r="3" transform="translate(119 125) rotate(-90)" fill="#00304d" opacity="0.222"/>
    </g>
    <g transform="translate(0 34)">
      <circle id="Ellipse_211-143" data-name="Ellipse 211" cx="3" cy="3" r="3" transform="translate(119 125) rotate(-90)" fill="#00304d" opacity="0.222"/>
    </g>
    <g transform="translate(17 34)">
      <circle id="Ellipse_211-144" data-name="Ellipse 211" cx="3" cy="3" r="3" transform="translate(119 125) rotate(-90)" fill="#00304d" opacity="0.222"/>
    </g>
    <g transform="translate(34 34)">
      <circle id="Ellipse_211-145" data-name="Ellipse 211" cx="3" cy="3" r="3" transform="translate(119 125) rotate(-90)" fill="#00304d" opacity="0.222"/>
    </g>
    <g transform="translate(51 34)">
      <circle id="Ellipse_211-146" data-name="Ellipse 211" cx="3" cy="3" r="3" transform="translate(119 125) rotate(-90)" fill="#00304d" opacity="0.222"/>
    </g>
    <g transform="translate(68 34)">
      <circle id="Ellipse_211-147" data-name="Ellipse 211" cx="3" cy="3" r="3" transform="translate(119 125) rotate(-90)" fill="#00304d" opacity="0.222"/>
    </g>
    <g transform="translate(85 34)">
      <circle id="Ellipse_211-148" data-name="Ellipse 211" cx="3" cy="3" r="3" transform="translate(119 125) rotate(-90)" fill="#00304d" opacity="0.222"/>
    </g>
    <g transform="translate(102 34)">
      <circle id="Ellipse_211-149" data-name="Ellipse 211" cx="3" cy="3" r="3" transform="translate(119 125) rotate(-90)" fill="#00304d" opacity="0.222"/>
    </g>
    <g transform="translate(119 34)">
      <circle id="Ellipse_211-150" data-name="Ellipse 211" cx="3" cy="3" r="3" transform="translate(119 125) rotate(-90)" fill="#00304d" opacity="0.222"/>
    </g>
    <g transform="translate(-119 51)">
      <circle id="Ellipse_211-151" data-name="Ellipse 211" cx="3" cy="3" r="3" transform="translate(119 125) rotate(-90)" fill="#00304d" opacity="0.222"/>
    </g>
    <g transform="translate(-102 51)">
      <circle id="Ellipse_211-152" data-name="Ellipse 211" cx="3" cy="3" r="3" transform="translate(119 125) rotate(-90)" fill="#00304d" opacity="0.222"/>
    </g>
    <g transform="translate(-85 51)">
      <circle id="Ellipse_211-153" data-name="Ellipse 211" cx="3" cy="3" r="3" transform="translate(119 125) rotate(-90)" fill="#00304d" opacity="0.222"/>
    </g>
    <g transform="translate(-68 51)">
      <circle id="Ellipse_211-154" data-name="Ellipse 211" cx="3" cy="3" r="3" transform="translate(119 125) rotate(-90)" fill="#00304d" opacity="0.222"/>
    </g>
    <g transform="translate(-51 51)">
      <circle id="Ellipse_211-155" data-name="Ellipse 211" cx="3" cy="3" r="3" transform="translate(119 125) rotate(-90)" fill="#00304d" opacity="0.222"/>
    </g>
    <g transform="translate(-34 51)">
      <circle id="Ellipse_211-156" data-name="Ellipse 211" cx="3" cy="3" r="3" transform="translate(119 125) rotate(-90)" fill="#00304d" opacity="0.222"/>
    </g>
    <g transform="translate(-17 51)">
      <circle id="Ellipse_211-157" data-name="Ellipse 211" cx="3" cy="3" r="3" transform="translate(119 125) rotate(-90)" fill="#00304d" opacity="0.222"/>
    </g>
    <g transform="translate(0 51)">
      <circle id="Ellipse_211-158" data-name="Ellipse 211" cx="3" cy="3" r="3" transform="translate(119 125) rotate(-90)" fill="#00304d" opacity="0.222"/>
    </g>
    <g transform="translate(17 51)">
      <circle id="Ellipse_211-159" data-name="Ellipse 211" cx="3" cy="3" r="3" transform="translate(119 125) rotate(-90)" fill="#00304d" opacity="0.222"/>
    </g>
    <g transform="translate(34 51)">
      <circle id="Ellipse_211-160" data-name="Ellipse 211" cx="3" cy="3" r="3" transform="translate(119 125) rotate(-90)" fill="#00304d" opacity="0.222"/>
    </g>
    <g transform="translate(51 51)">
      <circle id="Ellipse_211-161" data-name="Ellipse 211" cx="3" cy="3" r="3" transform="translate(119 125) rotate(-90)" fill="#00304d" opacity="0.222"/>
    </g>
    <g transform="translate(68 51)">
      <circle id="Ellipse_211-162" data-name="Ellipse 211" cx="3" cy="3" r="3" transform="translate(119 125) rotate(-90)" fill="#00304d" opacity="0.222"/>
    </g>
    <g transform="translate(85 51)">
      <circle id="Ellipse_211-163" data-name="Ellipse 211" cx="3" cy="3" r="3" transform="translate(119 125) rotate(-90)" fill="#00304d" opacity="0.222"/>
    </g>
    <g transform="translate(102 51)">
      <circle id="Ellipse_211-164" data-name="Ellipse 211" cx="3" cy="3" r="3" transform="translate(119 125) rotate(-90)" fill="#00304d" opacity="0.222"/>
    </g>
    <g transform="translate(119 51)">
      <circle id="Ellipse_211-165" data-name="Ellipse 211" cx="3" cy="3" r="3" transform="translate(119 125) rotate(-90)" fill="#00304d" opacity="0.222"/>
    </g>
    <g transform="translate(-119 68)">
      <circle id="Ellipse_211-166" data-name="Ellipse 211" cx="3" cy="3" r="3" transform="translate(119 125) rotate(-90)" fill="#00304d" opacity="0.222"/>
    </g>
    <g transform="translate(-102 68)">
      <circle id="Ellipse_211-167" data-name="Ellipse 211" cx="3" cy="3" r="3" transform="translate(119 125) rotate(-90)" fill="#00304d" opacity="0.222"/>
    </g>
    <g transform="translate(-85 68)">
      <circle id="Ellipse_211-168" data-name="Ellipse 211" cx="3" cy="3" r="3" transform="translate(119 125) rotate(-90)" fill="#00304d" opacity="0.222"/>
    </g>
    <g transform="translate(-68 68)">
      <circle id="Ellipse_211-169" data-name="Ellipse 211" cx="3" cy="3" r="3" transform="translate(119 125) rotate(-90)" fill="#00304d" opacity="0.222"/>
    </g>
    <g transform="translate(-51 68)">
      <circle id="Ellipse_211-170" data-name="Ellipse 211" cx="3" cy="3" r="3" transform="translate(119 125) rotate(-90)" fill="#00304d" opacity="0.222"/>
    </g>
    <g transform="translate(-34 68)">
      <circle id="Ellipse_211-171" data-name="Ellipse 211" cx="3" cy="3" r="3" transform="translate(119 125) rotate(-90)" fill="#00304d" opacity="0.222"/>
    </g>
    <g transform="translate(-17 68)">
      <circle id="Ellipse_211-172" data-name="Ellipse 211" cx="3" cy="3" r="3" transform="translate(119 125) rotate(-90)" fill="#00304d" opacity="0.222"/>
    </g>
    <g transform="translate(0 68)">
      <circle id="Ellipse_211-173" data-name="Ellipse 211" cx="3" cy="3" r="3" transform="translate(119 125) rotate(-90)" fill="#00304d" opacity="0.222"/>
    </g>
    <g transform="translate(17 68)">
      <circle id="Ellipse_211-174" data-name="Ellipse 211" cx="3" cy="3" r="3" transform="translate(119 125) rotate(-90)" fill="#00304d" opacity="0.222"/>
    </g>
    <g transform="translate(34 68)">
      <circle id="Ellipse_211-175" data-name="Ellipse 211" cx="3" cy="3" r="3" transform="translate(119 125) rotate(-90)" fill="#00304d" opacity="0.222"/>
    </g>
    <g transform="translate(51 68)">
      <circle id="Ellipse_211-176" data-name="Ellipse 211" cx="3" cy="3" r="3" transform="translate(119 125) rotate(-90)" fill="#00304d" opacity="0.222"/>
    </g>
    <g transform="translate(68 68)">
      <circle id="Ellipse_211-177" data-name="Ellipse 211" cx="3" cy="3" r="3" transform="translate(119 125) rotate(-90)" fill="#00304d" opacity="0.222"/>
    </g>
    <g transform="translate(85 68)">
      <circle id="Ellipse_211-178" data-name="Ellipse 211" cx="3" cy="3" r="3" transform="translate(119 125) rotate(-90)" fill="#00304d" opacity="0.222"/>
    </g>
    <g transform="translate(102 68)">
      <circle id="Ellipse_211-179" data-name="Ellipse 211" cx="3" cy="3" r="3" transform="translate(119 125) rotate(-90)" fill="#00304d" opacity="0.222"/>
    </g>
    <g transform="translate(119 68)">
      <circle id="Ellipse_211-180" data-name="Ellipse 211" cx="3" cy="3" r="3" transform="translate(119 125) rotate(-90)" fill="#00304d" opacity="0.222"/>
    </g>
    <g transform="translate(-119 85)">
      <circle id="Ellipse_211-181" data-name="Ellipse 211" cx="3" cy="3" r="3" transform="translate(119 125) rotate(-90)" fill="#00304d" opacity="0.222"/>
    </g>
    <g transform="translate(-102 85)">
      <circle id="Ellipse_211-182" data-name="Ellipse 211" cx="3" cy="3" r="3" transform="translate(119 125) rotate(-90)" fill="#00304d" opacity="0.222"/>
    </g>
    <g transform="translate(-85 85)">
      <circle id="Ellipse_211-183" data-name="Ellipse 211" cx="3" cy="3" r="3" transform="translate(119 125) rotate(-90)" fill="#00304d" opacity="0.222"/>
    </g>
    <g transform="translate(-68 85)">
      <circle id="Ellipse_211-184" data-name="Ellipse 211" cx="3" cy="3" r="3" transform="translate(119 125) rotate(-90)" fill="#00304d" opacity="0.222"/>
    </g>
    <g transform="translate(-51 85)">
      <circle id="Ellipse_211-185" data-name="Ellipse 211" cx="3" cy="3" r="3" transform="translate(119 125) rotate(-90)" fill="#00304d" opacity="0.222"/>
    </g>
    <g transform="translate(-34 85)">
      <circle id="Ellipse_211-186" data-name="Ellipse 211" cx="3" cy="3" r="3" transform="translate(119 125) rotate(-90)" fill="#00304d" opacity="0.222"/>
    </g>
    <g transform="translate(-17 85)">
      <circle id="Ellipse_211-187" data-name="Ellipse 211" cx="3" cy="3" r="3" transform="translate(119 125) rotate(-90)" fill="#00304d" opacity="0.222"/>
    </g>
    <g transform="translate(0 85)">
      <circle id="Ellipse_211-188" data-name="Ellipse 211" cx="3" cy="3" r="3" transform="translate(119 125) rotate(-90)" fill="#00304d" opacity="0.222"/>
    </g>
    <g transform="translate(17 85)">
      <circle id="Ellipse_211-189" data-name="Ellipse 211" cx="3" cy="3" r="3" transform="translate(119 125) rotate(-90)" fill="#00304d" opacity="0.222"/>
    </g>
    <g transform="translate(34 85)">
      <circle id="Ellipse_211-190" data-name="Ellipse 211" cx="3" cy="3" r="3" transform="translate(119 125) rotate(-90)" fill="#00304d" opacity="0.222"/>
    </g>
    <g transform="translate(51 85)">
      <circle id="Ellipse_211-191" data-name="Ellipse 211" cx="3" cy="3" r="3" transform="translate(119 125) rotate(-90)" fill="#00304d" opacity="0.222"/>
    </g>
    <g transform="translate(68 85)">
      <circle id="Ellipse_211-192" data-name="Ellipse 211" cx="3" cy="3" r="3" transform="translate(119 125) rotate(-90)" fill="#00304d" opacity="0.222"/>
    </g>
    <g transform="translate(85 85)">
      <circle id="Ellipse_211-193" data-name="Ellipse 211" cx="3" cy="3" r="3" transform="translate(119 125) rotate(-90)" fill="#00304d" opacity="0.222"/>
    </g>
    <g transform="translate(102 85)">
      <circle id="Ellipse_211-194" data-name="Ellipse 211" cx="3" cy="3" r="3" transform="translate(119 125) rotate(-90)" fill="#00304d" opacity="0.222"/>
    </g>
    <g transform="translate(119 85)">
      <circle id="Ellipse_211-195" data-name="Ellipse 211" cx="3" cy="3" r="3" transform="translate(119 125) rotate(-90)" fill="#00304d" opacity="0.222"/>
    </g>
    <g transform="translate(-119 102)">
      <circle id="Ellipse_211-196" data-name="Ellipse 211" cx="3" cy="3" r="3" transform="translate(119 125) rotate(-90)" fill="#00304d" opacity="0.222"/>
    </g>
    <g transform="translate(-102 102)">
      <circle id="Ellipse_211-197" data-name="Ellipse 211" cx="3" cy="3" r="3" transform="translate(119 125) rotate(-90)" fill="#00304d" opacity="0.222"/>
    </g>
    <g transform="translate(-85 102)">
      <circle id="Ellipse_211-198" data-name="Ellipse 211" cx="3" cy="3" r="3" transform="translate(119 125) rotate(-90)" fill="#00304d" opacity="0.222"/>
    </g>
    <g transform="translate(-68 102)">
      <circle id="Ellipse_211-199" data-name="Ellipse 211" cx="3" cy="3" r="3" transform="translate(119 125) rotate(-90)" fill="#00304d" opacity="0.222"/>
    </g>
    <g transform="translate(-51 102)">
      <circle id="Ellipse_211-200" data-name="Ellipse 211" cx="3" cy="3" r="3" transform="translate(119 125) rotate(-90)" fill="#00304d" opacity="0.222"/>
    </g>
    <g transform="translate(-34 102)">
      <circle id="Ellipse_211-201" data-name="Ellipse 211" cx="3" cy="3" r="3" transform="translate(119 125) rotate(-90)" fill="#00304d" opacity="0.222"/>
    </g>
    <g transform="translate(-17 102)">
      <circle id="Ellipse_211-202" data-name="Ellipse 211" cx="3" cy="3" r="3" transform="translate(119 125) rotate(-90)" fill="#00304d" opacity="0.222"/>
    </g>
    <g transform="translate(0 102)">
      <circle id="Ellipse_211-203" data-name="Ellipse 211" cx="3" cy="3" r="3" transform="translate(119 125) rotate(-90)" fill="#00304d" opacity="0.222"/>
    </g>
    <g transform="translate(17 102)">
      <circle id="Ellipse_211-204" data-name="Ellipse 211" cx="3" cy="3" r="3" transform="translate(119 125) rotate(-90)" fill="#00304d" opacity="0.222"/>
    </g>
    <g transform="translate(34 102)">
      <circle id="Ellipse_211-205" data-name="Ellipse 211" cx="3" cy="3" r="3" transform="translate(119 125) rotate(-90)" fill="#00304d" opacity="0.222"/>
    </g>
    <g transform="translate(51 102)">
      <circle id="Ellipse_211-206" data-name="Ellipse 211" cx="3" cy="3" r="3" transform="translate(119 125) rotate(-90)" fill="#00304d" opacity="0.222"/>
    </g>
    <g transform="translate(68 102)">
      <circle id="Ellipse_211-207" data-name="Ellipse 211" cx="3" cy="3" r="3" transform="translate(119 125) rotate(-90)" fill="#00304d" opacity="0.222"/>
    </g>
    <g transform="translate(85 102)">
      <circle id="Ellipse_211-208" data-name="Ellipse 211" cx="3" cy="3" r="3" transform="translate(119 125) rotate(-90)" fill="#00304d" opacity="0.222"/>
    </g>
    <g transform="translate(102 102)">
      <circle id="Ellipse_211-209" data-name="Ellipse 211" cx="3" cy="3" r="3" transform="translate(119 125) rotate(-90)" fill="#00304d" opacity="0.222"/>
    </g>
    <g transform="translate(119 102)">
      <circle id="Ellipse_211-210" data-name="Ellipse 211" cx="3" cy="3" r="3" transform="translate(119 125) rotate(-90)" fill="#00304d" opacity="0.222"/>
    </g>
    <g transform="translate(-119 119)">
      <circle id="Ellipse_211-211" data-name="Ellipse 211" cx="3" cy="3" r="3" transform="translate(119 125) rotate(-90)" fill="#00304d" opacity="0.222"/>
    </g>
    <g transform="translate(-102 119)">
      <circle id="Ellipse_211-212" data-name="Ellipse 211" cx="3" cy="3" r="3" transform="translate(119 125) rotate(-90)" fill="#00304d" opacity="0.222"/>
    </g>
    <g transform="translate(-85 119)">
      <circle id="Ellipse_211-213" data-name="Ellipse 211" cx="3" cy="3" r="3" transform="translate(119 125) rotate(-90)" fill="#00304d" opacity="0.222"/>
    </g>
    <g transform="translate(-68 119)">
      <circle id="Ellipse_211-214" data-name="Ellipse 211" cx="3" cy="3" r="3" transform="translate(119 125) rotate(-90)" fill="#00304d" opacity="0.222"/>
    </g>
    <g transform="translate(-51 119)">
      <circle id="Ellipse_211-215" data-name="Ellipse 211" cx="3" cy="3" r="3" transform="translate(119 125) rotate(-90)" fill="#00304d" opacity="0.222"/>
    </g>
    <g transform="translate(-34 119)">
      <circle id="Ellipse_211-216" data-name="Ellipse 211" cx="3" cy="3" r="3" transform="translate(119 125) rotate(-90)" fill="#00304d" opacity="0.222"/>
    </g>
    <g transform="translate(-17 119)">
      <circle id="Ellipse_211-217" data-name="Ellipse 211" cx="3" cy="3" r="3" transform="translate(119 125) rotate(-90)" fill="#00304d" opacity="0.222"/>
    </g>
    <g transform="translate(0 119)">
      <circle id="Ellipse_211-218" data-name="Ellipse 211" cx="3" cy="3" r="3" transform="translate(119 125) rotate(-90)" fill="#00304d" opacity="0.222"/>
    </g>
    <g transform="translate(17 119)">
      <circle id="Ellipse_211-219" data-name="Ellipse 211" cx="3" cy="3" r="3" transform="translate(119 125) rotate(-90)" fill="#00304d" opacity="0.222"/>
    </g>
    <g transform="translate(34 119)">
      <circle id="Ellipse_211-220" data-name="Ellipse 211" cx="3" cy="3" r="3" transform="translate(119 125) rotate(-90)" fill="#00304d" opacity="0.222"/>
    </g>
    <g transform="translate(51 119)">
      <circle id="Ellipse_211-221" data-name="Ellipse 211" cx="3" cy="3" r="3" transform="translate(119 125) rotate(-90)" fill="#00304d" opacity="0.222"/>
    </g>
    <g transform="translate(68 119)">
      <circle id="Ellipse_211-222" data-name="Ellipse 211" cx="3" cy="3" r="3" transform="translate(119 125) rotate(-90)" fill="#00304d" opacity="0.222"/>
    </g>
    <g transform="translate(85 119)">
      <circle id="Ellipse_211-223" data-name="Ellipse 211" cx="3" cy="3" r="3" transform="translate(119 125) rotate(-90)" fill="#00304d" opacity="0.222"/>
    </g>
    <g transform="translate(102 119)">
      <circle id="Ellipse_211-224" data-name="Ellipse 211" cx="3" cy="3" r="3" transform="translate(119 125) rotate(-90)" fill="#00304d" opacity="0.222"/>
    </g>
    <g transform="translate(119 119)">
      <circle id="Ellipse_211-225" data-name="Ellipse 211" cx="3" cy="3" r="3" transform="translate(119 125) rotate(-90)" fill="#00304d" opacity="0.222"/>
    </g>
  </g>
</svg>
