<svg width="90" height="90" viewBox="0 0 90 90" fill="none" xmlns="http://www.w3.org/2000/svg">
<path d="M45.1731 70.702C46.129 70.702 46.9039 69.9271 46.9039 68.9712C46.9039 68.0154 46.129 67.2405 45.1731 67.2405C44.2172 67.2405 43.4423 68.0154 43.4423 68.9712C43.4423 69.9271 44.2172 70.702 45.1731 70.702Z" fill="#FB3D54" fill-opacity="0.6"/>
<path d="M15.5769 12.5481C17.4807 12.5481 19.0384 10.9904 19.0384 9.08654C19.0384 7.18269 17.4807 5.625 15.5769 5.625C13.673 5.625 12.1154 7.18269 12.1154 9.08654C12.1154 10.9904 13.673 12.5481 15.5769 12.5481ZM15.5769 7.35577C16.5288 7.35577 17.3077 8.13462 17.3077 9.08654C17.3077 10.0385 16.5288 10.8173 15.5769 10.8173C14.625 10.8173 13.8461 10.0385 13.8461 9.08654C13.8461 8.13462 14.625 7.35577 15.5769 7.35577Z" fill="#FB3D54" fill-opacity="0.6"/>
<path d="M77.0192 16.0096C79.875 16.0096 82.2115 13.6731 82.2115 10.8173C82.2115 7.96154 79.875 5.625 77.0192 5.625C74.1634 5.625 71.8269 7.96154 71.8269 10.8173C71.8269 13.6731 74.1634 16.0096 77.0192 16.0096ZM77.0192 7.35577C78.923 7.35577 80.4807 8.91346 80.4807 10.8173C80.4807 12.7212 78.923 14.2788 77.0192 14.2788C75.1154 14.2788 73.5577 12.7212 73.5577 10.8173C73.5577 8.91346 75.1154 7.35577 77.0192 7.35577Z" fill="#FB3D54" fill-opacity="0.6"/>
<path d="M30.7211 9.95199C31.438 9.95199 32.0192 9.37082 32.0192 8.65391C32.0192 7.937 31.438 7.35583 30.7211 7.35583C30.0042 7.35583 29.423 7.937 29.423 8.65391C29.423 9.37082 30.0042 9.95199 30.7211 9.95199Z" fill="#FB3D54" fill-opacity="0.6"/>
<path d="M67.0673 15.1442C67.7842 15.1442 68.3654 14.5631 68.3654 13.8462C68.3654 13.1293 67.7842 12.5481 67.0673 12.5481C66.3504 12.5481 65.7692 13.1293 65.7692 13.8462C65.7692 14.5631 66.3504 15.1442 67.0673 15.1442Z" fill="#FB3D54" fill-opacity="0.6"/>
<path d="M41.1058 14.2789C41.8227 14.2789 42.4038 13.6977 42.4038 12.9808C42.4038 12.2639 41.8227 11.6827 41.1058 11.6827C40.3888 11.6827 39.8077 12.2639 39.8077 12.9808C39.8077 13.6977 40.3888 14.2789 41.1058 14.2789Z" fill="#FB3D54" fill-opacity="0.6"/>
<path d="M77.7981 17.7404H57.4961C58.6385 16.5981 61.3731 13.8635 63.2423 11.9942C64.5404 10.6962 64.5404 8.56732 63.2423 7.26924L60.8538 4.88078C59.5558 3.58271 57.4269 3.58271 56.1288 4.88078L43.2692 17.7404H12.2019C8.8096 17.7404 6.05768 20.4923 6.05768 23.8846V68.7116C6.05768 72.1039 8.8096 74.8558 12.2019 74.8558H14.7115V77.4519C14.7115 77.9366 15.0923 78.3173 15.5769 78.3173H32.8846C33.3692 78.3173 33.75 77.9366 33.75 77.4519V74.8558H35.4808V84.375H33.2308C32.7461 84.375 32.3654 84.7558 32.3654 85.2404C32.3654 85.725 32.7461 86.1058 33.2308 86.1058H57.1154C57.6 86.1058 57.9808 85.725 57.9808 85.2404C57.9808 84.7558 57.6 84.375 57.1154 84.375H54.6923V74.8558H56.25V77.4519C56.25 77.9366 56.6308 78.3173 57.1154 78.3173H74.4231C74.9077 78.3173 75.2885 77.9366 75.2885 77.4519V74.8558H77.7981C81.1904 74.8558 83.9423 72.1039 83.9423 68.7116V23.8846C83.9423 20.4923 81.1904 17.7404 77.7981 17.7404ZM57.3404 6.09232C57.9634 5.46925 58.9846 5.46925 59.625 6.09232L62.0134 8.48078C62.6365 9.10386 62.6365 10.125 62.0134 10.7654L60.3346 12.4442L55.6615 7.77117L57.3404 6.09232ZM54.4327 9.00001L59.1058 13.6731L56.9596 15.8192L52.2865 11.1462L54.4327 9.00001ZM31.4308 36.7616L32.625 31.3096L35.9481 32.2442L36.8134 35.4981L31.4308 36.7616ZM31.1884 29.8558C31.1711 29.8904 31.1538 29.925 31.1365 29.9769C31.1365 29.9769 31.1365 29.9942 31.1192 29.9942V30.0116C31.0846 30.15 29.4231 37.7654 29.4231 37.7481C29.2327 38.8212 30.375 38.7519 30.3923 38.7692C31.6211 38.7866 37.4884 38.7692 66.7558 38.7692C67.6385 38.7692 68.3481 39.4789 68.3481 40.3616C68.3481 41.2442 67.6385 41.9539 66.7558 41.9539H47.5961C45.6923 41.9539 44.1346 43.5116 44.1346 45.4154C44.1346 47.3192 45.6923 48.8769 47.5961 48.8769H53.6538C54.1385 48.8769 54.5192 48.4962 54.5192 48.0116C54.5192 47.5269 54.1385 47.1462 53.6538 47.1462H47.5961C46.6442 47.1462 45.8654 46.3673 45.8654 45.4154C45.8654 44.4635 46.6442 43.6846 47.5961 43.6846H66.7731C68.6077 43.6846 70.0961 42.1962 70.0961 40.3616C70.0961 38.5269 68.6077 37.0385 66.7731 37.0385H37.7654C38.0596 36.9692 38.2846 36.9519 38.4923 36.7269L50.5731 24.6462H77.0192V62.7231H12.9808V24.6462H36.3288C30.8942 30.0981 31.2923 29.6481 31.1884 29.8558ZM38.3192 34.4596L37.6096 31.8116L54.0346 15.3866L55.7134 17.0654C53.0308 19.7481 39.6519 33.1269 38.3192 34.4596ZM51.0577 12.375L52.8231 14.1404L36.3981 30.5654L33.6288 29.7866L51.0577 12.375ZM32.0192 76.5866H16.4423V74.8558H32.0192V76.5866ZM52.9615 84.375H37.2115V74.8558H52.9615V84.375ZM73.5577 76.5866H57.9808V74.8558H73.5577V76.5866ZM82.2115 68.7116C82.2115 71.1519 80.2384 73.125 77.7981 73.125C63.4154 73.125 83.5961 73.125 12.2019 73.125C9.76152 73.125 7.78845 71.1519 7.78845 68.7116V23.8846C7.78845 21.4442 9.76152 19.4712 12.2019 19.4712H41.5211L38.0596 22.9327H12.1154C11.6308 22.9327 11.25 23.3135 11.25 23.7981V63.6058C11.25 64.0904 11.6308 64.4712 12.1154 64.4712H77.8846C78.3692 64.4712 78.75 64.0904 78.75 63.6058V23.7981C78.75 23.3135 78.3692 22.9327 77.8846 22.9327H52.3038L55.7654 19.4712H77.7981C80.2384 19.4712 82.2115 21.4442 82.2115 23.8846V68.7116Z" fill="#FB3D54" fill-opacity="0.6"/>
<path d="M56.25 48.8942C56.7279 48.8942 57.1153 48.5068 57.1153 48.0288C57.1153 47.5509 56.7279 47.1635 56.25 47.1635C55.772 47.1635 55.3846 47.5509 55.3846 48.0288C55.3846 48.5068 55.772 48.8942 56.25 48.8942Z" fill="#FB3D54" fill-opacity="0.6"/>
<path d="M58.8462 48.8942C59.3241 48.8942 59.7115 48.5068 59.7115 48.0288C59.7115 47.5509 59.3241 47.1635 58.8462 47.1635C58.3682 47.1635 57.9808 47.5509 57.9808 48.0288C57.9808 48.5068 58.3682 48.8942 58.8462 48.8942Z" fill="#FB3D54" fill-opacity="0.6"/>
<path d="M14.7115 42.8366V60.1443C14.7115 60.6289 15.0923 61.0097 15.5769 61.0097H40.6731C41.1577 61.0097 41.5385 60.6289 41.5385 60.1443V42.8366C41.5385 42.352 41.1577 41.9712 40.6731 41.9712H15.5769C15.0923 41.9712 14.7115 42.352 14.7115 42.8366ZM16.4423 43.702H39.8077V59.2789H16.4423V43.702Z" fill="#FB3D54" fill-opacity="0.6"/>
<path d="M37.2115 45.4327H19.0384C18.5538 45.4327 18.173 45.8135 18.173 46.2981C18.173 46.7827 18.5538 47.1635 19.0384 47.1635H37.2115C37.6961 47.1635 38.0769 46.7827 38.0769 46.2981C38.0769 45.8135 37.6961 45.4327 37.2115 45.4327Z" fill="#FB3D54" fill-opacity="0.6"/>
<path d="M37.2115 48.8943H19.0384C18.5538 48.8943 18.173 49.2751 18.173 49.7597C18.173 50.2443 18.5538 50.625 19.0384 50.625H37.2115C37.6961 50.625 38.0769 50.2443 38.0769 49.7597C38.0769 49.2751 37.6961 48.8943 37.2115 48.8943Z" fill="#FB3D54" fill-opacity="0.6"/>
<path d="M37.2115 52.3557H19.0384C18.5538 52.3557 18.173 52.7365 18.173 53.2211C18.173 53.7057 18.5538 54.0865 19.0384 54.0865H37.2115C37.6961 54.0865 38.0769 53.7057 38.0769 53.2211C38.0769 52.7365 37.6961 52.3557 37.2115 52.3557Z" fill="#FB3D54" fill-opacity="0.6"/>
<path d="M25.9615 55.8174H19.0384C18.5538 55.8174 18.173 56.1982 18.173 56.6828C18.173 57.1674 18.5538 57.5481 19.0384 57.5481H25.9615C26.4461 57.5481 26.8269 57.1674 26.8269 56.6828C26.8269 56.1982 26.4461 55.8174 25.9615 55.8174Z" fill="#FB3D54" fill-opacity="0.6"/>
</svg>
