<svg width="90" height="90" viewBox="0 0 90 90" fill="none" xmlns="http://www.w3.org/2000/svg">
<path d="M25.9347 75.7852C26.3404 76.0393 26.8744 75.9153 27.1276 75.511C27.3811 75.106 27.2584 74.5719 26.8534 74.3182C16.9205 68.0981 10.9904 57.397 10.9904 45.6926C10.9904 31.7584 19.3592 19.4379 32.3109 14.3048C32.7552 14.1286 32.9726 13.6258 32.7965 13.1814C32.6204 12.7372 32.1179 12.5197 31.6731 12.6957C18.3602 17.9723 9.25964 30.8961 9.25964 45.6926C9.25964 58.2333 15.8028 69.4405 25.9347 75.7852Z" fill="#FB3D54" fill-opacity="0.6"/>
<path d="M80.2212 45.6926C80.2212 26.6085 65.0763 10.995 46.1738 10.2402L47.9254 6.98744C48.1521 6.56652 47.9946 6.04175 47.5737 5.81519C47.1533 5.58863 46.6282 5.74579 46.4016 6.16688L43.9785 10.6669C43.8442 10.9172 43.837 11.2344 43.9879 11.5022C44.0414 11.598 45.7931 14.5988 46.416 15.6672C46.6576 16.0814 47.1879 16.2188 47.5996 15.9786C48.0124 15.7379 48.1518 15.2079 47.9112 14.7951L46.2683 11.979C64.1718 12.7805 78.4904 27.5948 78.4904 45.6926C78.4904 64.3024 63.3502 79.4426 44.7404 79.4426H5.62503C5.14716 79.4426 4.75964 79.83 4.75964 80.308C4.75964 80.7859 5.14716 81.1734 5.62503 81.1734H44.7404C64.3045 81.1734 80.2212 65.2567 80.2212 45.6926V45.6926Z" fill="#FB3D54" fill-opacity="0.6"/>
<path d="M84.3733 79.9444C84.3709 79.8121 84.3471 79.7204 84.2975 79.6091C84.194 79.3763 84.2945 79.5321 80.6599 75.8881C80.3222 75.5503 79.7739 75.5503 79.4363 75.8881C79.0982 76.2262 79.0982 76.7741 79.4363 77.112L81.4204 79.0963H66.2019C65.7239 79.0963 65.3365 79.4836 65.3365 79.9617C65.3365 80.4395 65.7239 80.8271 66.2019 80.8271H81.4204L79.4363 82.8112C79.0982 83.1492 79.0982 83.6972 79.4363 84.035C79.7739 84.3731 80.3222 84.3731 80.6599 84.035C84.412 80.2796 84.2234 80.5147 84.3182 80.2653C84.3468 80.1893 84.3754 80.0366 84.3733 79.9444V79.9444Z" fill="#FB3D54" fill-opacity="0.6"/>
<path d="M17.9135 45.6927C17.9135 60.4851 29.9481 72.5196 44.7404 72.5196C59.533 72.5196 71.5674 60.4851 71.5674 45.6927C71.5674 30.9002 59.533 18.8656 44.7404 18.8656C29.9481 18.8658 17.9135 30.9002 17.9135 45.6927ZM44.7404 20.5965C58.5785 20.5965 69.8366 31.8547 69.8366 45.6929C69.8366 59.5309 58.5785 70.789 44.7404 70.789C30.9024 70.789 19.6443 59.5309 19.6443 45.6929C19.6443 31.8545 30.9024 20.5965 44.7404 20.5965V20.5965Z" fill="#FB3D54" fill-opacity="0.6"/>
<path d="M11.6827 16.7888C13.5914 16.7888 15.1443 15.236 15.1443 13.3273C15.1443 11.4186 13.5914 9.86572 11.6827 9.86572C9.77404 9.86572 8.22119 11.4186 8.22119 13.3273C8.22119 15.2358 9.77404 16.7888 11.6827 16.7888ZM11.6827 11.5965C12.6371 11.5965 13.4135 12.3729 13.4135 13.3273C13.4135 14.2816 12.6371 15.058 11.6827 15.058C10.7284 15.058 9.95196 14.2816 9.95196 13.3273C9.95196 12.3727 10.7284 11.5965 11.6827 11.5965Z" fill="#FB3D54" fill-opacity="0.6"/>
<path d="M79.1827 19.385C82.5229 19.385 85.2404 16.6676 85.2404 13.3273C85.2404 9.98713 82.5229 7.26965 79.1827 7.26965C75.8425 7.26965 73.125 9.98713 73.125 13.3273C73.125 16.6674 75.8425 19.385 79.1827 19.385ZM79.1827 9.00025C81.5686 9.00025 83.5096 10.9413 83.5096 13.3272C83.5096 15.713 81.5686 17.6541 79.1827 17.6541C76.7968 17.6541 74.8558 15.713 74.8558 13.3272C74.8558 10.9413 76.7968 9.00025 79.1827 9.00025V9.00025Z" fill="#FB3D54" fill-opacity="0.6"/>
<path d="M6.49042 72.1733C6.49042 74.0819 8.04326 75.6349 9.95196 75.6349C11.8607 75.6349 13.4135 74.0819 13.4135 72.1733C13.4135 70.2646 11.8607 68.7118 9.95196 68.7118C8.04326 68.7118 6.49042 70.2646 6.49042 72.1733ZM11.6827 72.1733C11.6827 73.1277 10.9063 73.9041 9.95196 73.9041C8.99761 73.9041 8.22119 73.1277 8.22119 72.1733C8.22119 71.2188 8.99761 70.4426 9.95196 70.4426C10.9063 70.4426 11.6827 71.2188 11.6827 72.1733Z" fill="#FB3D54" fill-opacity="0.6"/>
<path d="M64.0385 10.7308C64.7554 10.7308 65.3366 10.1496 65.3366 9.43272C65.3366 8.71581 64.7554 8.13464 64.0385 8.13464C63.3216 8.13464 62.7404 8.71581 62.7404 9.43272C62.7404 10.1496 63.3216 10.7308 64.0385 10.7308Z" fill="#FB3D54" fill-opacity="0.6"/>
<path d="M82.2115 28.9038C82.9284 28.9038 83.5096 28.3226 83.5096 27.6057C83.5096 26.8888 82.9284 26.3076 82.2115 26.3076C81.4946 26.3076 80.9135 26.8888 80.9135 27.6057C80.9135 28.3226 81.4946 28.9038 82.2115 28.9038Z" fill="#FB3D54" fill-opacity="0.6"/>
<path d="M79.6154 66.1154C80.3323 66.1154 80.9135 65.5343 80.9135 64.8174C80.9135 64.1005 80.3323 63.5193 79.6154 63.5193C78.8985 63.5193 78.3173 64.1005 78.3173 64.8174C78.3173 65.5343 78.8985 66.1154 79.6154 66.1154Z" fill="#FB3D54" fill-opacity="0.6"/>
<path d="M6.92308 63.5193C7.63999 63.5193 8.22115 62.9381 8.22115 62.2212C8.22115 61.5043 7.63999 60.9231 6.92308 60.9231C6.20617 60.9231 5.625 61.5043 5.625 62.2212C5.625 62.9381 6.20617 63.5193 6.92308 63.5193Z" fill="#FB3D54" fill-opacity="0.6"/>
<path d="M24.2308 10.7308C24.9477 10.7308 25.5289 10.1496 25.5289 9.43272C25.5289 8.71581 24.9477 8.13464 24.2308 8.13464C23.5139 8.13464 22.9327 8.71581 22.9327 9.43272C22.9327 10.1496 23.5139 10.7308 24.2308 10.7308Z" fill="#FB3D54" fill-opacity="0.6"/>
<path d="M7.78849 27.1731C8.5054 27.1731 9.08657 26.5919 9.08657 25.875C9.08657 25.1581 8.5054 24.5769 7.78849 24.5769C7.07159 24.5769 6.49042 25.1581 6.49042 25.875C6.49042 26.5919 7.07159 27.1731 7.78849 27.1731Z" fill="#FB3D54" fill-opacity="0.6"/>
<path d="M30.2885 62.6541H58.8462C60.5162 62.6541 61.875 61.2953 61.875 59.6253V55.2984C61.875 53.6282 60.5162 52.2695 58.8462 52.2695H58.4135V50.5387H58.8462C60.5162 50.5387 61.875 49.1799 61.875 47.5099V43.1828C61.875 41.5128 60.5162 40.154 58.8462 40.154H58.4135V38.4232H58.8462C60.5162 38.4232 61.875 37.0644 61.875 35.3943V31.0674C61.875 29.3974 60.5162 28.0386 58.8462 28.0386H30.2885C28.6185 28.0386 27.2596 29.3974 27.2596 31.0674V35.3943C27.2596 37.0644 28.6185 38.4232 30.2885 38.4232H30.7212V40.154H30.2885C28.6185 40.154 27.2596 41.5128 27.2596 43.1828V47.5099C27.2596 49.1799 28.6185 50.5387 30.2885 50.5387H30.7212V52.2695H30.2885C28.6185 52.2695 27.2596 53.6282 27.2596 55.2984V59.6253C27.2596 61.2953 28.6185 62.6541 30.2885 62.6541ZM28.9904 35.3943V31.0674C28.9904 30.3516 29.5726 29.7693 30.2885 29.7693H58.8462C59.562 29.7693 60.1442 30.3516 60.1442 31.0674V35.3943C60.1442 36.1102 59.562 36.6924 58.8462 36.6924C53.2605 36.6924 36.1011 36.6924 30.2885 36.6924C29.5726 36.6924 28.9904 36.1102 28.9904 35.3943ZM32.4519 38.4232H56.6827V40.154H32.4519V38.4232ZM28.9904 47.5099V43.1828C28.9904 42.467 29.5726 41.8847 30.2885 41.8847H31.5866H58.8462C59.562 41.8847 60.1442 42.467 60.1442 43.1828V47.5099C60.1442 48.2257 59.562 48.808 58.8462 48.808C53.2605 48.808 36.1011 48.808 30.2885 48.808C29.5726 48.808 28.9904 48.2257 28.9904 47.5099ZM32.4519 50.5387H56.6827V52.2695H32.4519V50.5387ZM28.9904 55.2984C28.9904 54.5825 29.5726 54.0003 30.2885 54.0003H58.8462C59.562 54.0003 60.1442 54.5825 60.1442 55.2984V59.6253C60.1442 60.3411 59.562 60.9234 58.8462 60.9234H30.2885C29.5726 60.9234 28.9904 60.3411 28.9904 59.6253V55.2984Z" fill="#FB3D54" fill-opacity="0.6"/>
<path d="M55.8174 60.058C57.2489 60.058 58.4135 58.8932 58.4135 57.4619C58.4135 56.0302 57.2489 54.8657 55.8174 54.8657C54.3857 54.8657 53.2212 56.0302 53.2212 57.4619C53.2212 58.8932 54.3857 60.058 55.8174 60.058ZM55.8174 56.5965C56.2945 56.5965 56.6827 56.9847 56.6827 57.4619C56.6827 57.9391 56.2945 58.3273 55.8174 58.3273C55.3402 58.3273 54.952 57.9391 54.952 57.4619C54.952 56.9847 55.3402 56.5965 55.8174 56.5965Z" fill="#FB3D54" fill-opacity="0.6"/>
<path d="M49.7596 60.058C51.1911 60.058 52.3558 58.8932 52.3558 57.4619C52.3558 56.0302 51.1911 54.8657 49.7596 54.8657C48.3279 54.8657 47.1635 56.0302 47.1635 57.4619C47.1635 58.8932 48.3279 60.058 49.7596 60.058ZM49.7596 56.5965C50.2368 56.5965 50.625 56.9847 50.625 57.4619C50.625 57.9391 50.2368 58.3273 49.7596 58.3273C49.2824 58.3273 48.8942 57.9391 48.8942 57.4619C48.8942 56.9847 49.2824 56.5965 49.7596 56.5965Z" fill="#FB3D54" fill-opacity="0.6"/>
<path d="M31.5866 58.3272H43.702C44.1798 58.3272 44.5674 57.9397 44.5674 57.4618C44.5674 56.9838 44.1798 56.5964 43.702 56.5964H31.5866C31.1087 56.5964 30.7212 56.9838 30.7212 57.4618C30.7212 57.9397 31.1087 58.3272 31.5866 58.3272Z" fill="#FB3D54" fill-opacity="0.6"/>
<path d="M55.8174 47.9426C57.2489 47.9426 58.4135 46.7778 58.4135 45.3465C58.4135 43.9148 57.2489 42.7501 55.8174 42.7501C54.3857 42.7501 53.2212 43.9148 53.2212 45.3465C53.2212 46.7778 54.3857 47.9426 55.8174 47.9426ZM55.8174 44.4811C56.2945 44.4811 56.6827 44.8693 56.6827 45.3465C56.6827 45.8236 56.2945 46.2118 55.8174 46.2118C55.3402 46.2118 54.952 45.8236 54.952 45.3465C54.952 44.8693 55.3402 44.4811 55.8174 44.4811Z" fill="#FB3D54" fill-opacity="0.6"/>
<path d="M49.7596 47.9426C51.1911 47.9426 52.3558 46.7778 52.3558 45.3465C52.3558 43.9148 51.1911 42.7501 49.7596 42.7501C48.3279 42.7501 47.1635 43.9148 47.1635 45.3465C47.1635 46.7778 48.3279 47.9426 49.7596 47.9426ZM49.7596 44.4811C50.2368 44.4811 50.625 44.8693 50.625 45.3465C50.625 45.8236 50.2368 46.2118 49.7596 46.2118C49.2824 46.2118 48.8942 45.8236 48.8942 45.3465C48.8942 44.8693 49.2824 44.4811 49.7596 44.4811Z" fill="#FB3D54" fill-opacity="0.6"/>
<path d="M43.702 46.2118C44.1798 46.2118 44.5674 45.8243 44.5674 45.3465C44.5674 44.8684 44.1798 44.4811 43.702 44.4811H31.5866C31.1087 44.4811 30.7212 44.8684 30.7212 45.3465C30.7212 45.8243 31.1087 46.2118 31.5866 46.2118H43.702Z" fill="#FB3D54" fill-opacity="0.6"/>
<path d="M55.8174 35.8271C57.2489 35.8271 58.4135 34.6624 58.4135 33.2309C58.4135 31.7994 57.2489 30.6348 55.8174 30.6348C54.3857 30.6348 53.2212 31.7994 53.2212 33.2309C53.2212 34.6626 54.3857 35.8271 55.8174 35.8271ZM55.8174 32.3655C56.2945 32.3655 56.6827 32.7537 56.6827 33.2309C56.6827 33.7081 56.2945 34.0963 55.8174 34.0963C55.3402 34.0963 54.952 33.7081 54.952 33.2309C54.952 32.7539 55.3402 32.3655 55.8174 32.3655Z" fill="#FB3D54" fill-opacity="0.6"/>
<path d="M49.7596 35.8271C51.1911 35.8271 52.3558 34.6624 52.3558 33.2309C52.3558 31.7994 51.1911 30.6348 49.7596 30.6348C48.3279 30.6348 47.1635 31.7994 47.1635 33.2309C47.1635 34.6626 48.3279 35.8271 49.7596 35.8271ZM49.7596 32.3655C50.2368 32.3655 50.625 32.7537 50.625 33.2309C50.625 33.7081 50.2368 34.0963 49.7596 34.0963C49.2824 34.0963 48.8942 33.7081 48.8942 33.2309C48.8942 32.7539 49.2824 32.3655 49.7596 32.3655Z" fill="#FB3D54" fill-opacity="0.6"/>
<path d="M43.702 34.0962C44.1798 34.0962 44.5674 33.7087 44.5674 33.2309C44.5674 32.753 44.1798 32.3655 43.702 32.3655H31.5866C31.1087 32.3655 30.7212 32.753 30.7212 33.2309C30.7212 33.7087 31.1087 34.0962 31.5866 34.0962H43.702Z" fill="#FB3D54" fill-opacity="0.6"/>
</svg>
