<svg height="60" preserveAspectRatio="xMidYMid" viewBox="0 0 120 60" width="120" xmlns="http://www.w3.org/2000/svg" xmlns:xlink="http://www.w3.org/1999/xlink"><linearGradient id="a" gradientTransform="scale(4.2259133 .23663524)" gradientUnits="userSpaceOnUse" x1="68.698212" x2="68.738472" y1="7.979478" y2="20.915449"><stop offset="0" stop-color="#20c6b7"/><stop offset="1" stop-color="#4d9abf"/></linearGradient><g transform="matrix(.19558458 0 0 .19558458 9.950428 21.642851)"><path d="m32.808562 1.9404245h16.273701v56.7007095c0 7.993421-2.30973 14.333902-6.929261 19.021632s-10.436985 7.03156-17.452538 7.03156c-7.590598 0-13.599732-2.091705-18.0275807-6.275177-4.4278489-4.183473-6.56506861-10.346532-6.41172319-18.489362l.17251273-.33617h15.92867516c0 4.29553.7763 7.433087 2.328922 9.412766 1.552623 1.979679 3.555667 2.969503 6.009194 2.969503 2.223509 0 4.130713-1.176584 5.721672-3.529787s2.386426-5.621492 2.386426-9.804965zm61.54046 64.2645395h-22.08163l-4.485331 17.312766h-16.503718l23.57674-81.5773055h17.021256l23.519231 81.5773055h-16.503713zm-18.746384-12.830496h15.411138l-7.533056-28.854611h-.345026zm63.495602-51.4340435 15.00861 59.8943275h.34503l15.18112-59.8943275h21.33407v81.5773055h-16.2737v-23.7l1.3801-31.712057-.34502-.05603-15.98618 55.468085h-10.86831l-15.81366-55.019858-.34503.05603 1.43761 31.26383v23.7h-16.2737v-81.5773055zm115.93948 62.0234055c0-5.117284-1.92638-9.207314-5.77918-12.270213-3.8528-3.0629-10.53281-5.86429-20.04023-8.404256-9.54575-2.502613-16.53245-5.350693-20.9603-8.544326-4.42784-3.193633-6.64174-7.853279-6.64174-13.979078 0-6.088447 2.60684-10.9441904 7.82058-14.5673764 5.21375-3.623186 11.865-5.43475181 19.95397-5.43475181 8.16565 0 14.83607 2.22243641 20.01148 6.66737591 5.17541 4.4449393 7.6864 10.1597763 7.53306 17.1446813l-.11501.33617h-2.6452c0-6.088447-2.30014-11.130949-6.90051-15.1276597-4.60036-3.9967104-10.56157-5.9950356-17.88382-5.9950356-7.59059 0-13.59973 1.6528204-18.02758 4.9585108-4.42785 3.3056905-6.64174 7.2743265-6.64174 11.9060285s1.83054 8.478945 5.49166 11.541844c3.66112 3.0629 10.28363 5.789586 19.86771 8.180142 9.2774 2.390556 16.28327 5.31334 21.01781 8.76844s7.10177 8.357533 7.10177 14.707447c0 6.461971-2.70267 11.551163-8.1081 15.267731-5.40542 3.716567-12.17169 5.574822-20.299 5.574822-8.39566 0-15.62195-1.914283-21.6791-5.742907-6.05714-3.828625-8.98983-9.851614-8.79815-18.06915l.11501-.33617h2.58769c0 7.395782 2.79852 12.765113 8.39562 16.108156 5.59711 3.343043 12.05669 5.014539 19.37893 5.014539 7.36058 0 13.40805-1.643482 18.14259-4.930496s7.10178-7.545128 7.10178-12.774468zm63.21616-50.647474c0 .40815-.15709.782282-.47126 1.122406-.31418.340125-.68071.510185-1.09962.510185h-24.29612v67.03823c0 .40815-.17454.765275-.52363 1.071388-.34908.306112-.73307.459165-1.15197.459165s-.80289-.136047-1.15197-.408147-.52362-.646231-.52362-1.122406v-67.03823h-24.40086c-.4189 0-.78543-.17006-1.09961-.510185-.31417-.340124-.47126-.714256-.47126-1.122406 0-.408149.13964-.799286.4189-1.173424.27927-.374137.66326-.561202 1.15197-.561202h52.04817c.48872 0 .87271.187065 1.15198.561202.27927.374138.4189.765275.4189 1.173424zm47.52789 45.829034h-40.94302l-9.31569 24.37234h-3.39275l31.28231-81.5773055h3.79528l31.33981 81.5773055h-3.39275zm-39.79293-3.025532h38.64285l-17.5388-45.943263-1.61012-4.5943264h-.34502l-1.55262 4.5943264zm113.82273 2.40922.11501.33617c.15334 8.366945-2.4439 14.763453-7.79183 19.189716-5.34792 4.426264-12.39212 6.639362-21.1328 6.639362-9.16239 0-16.5037-3.296303-22.02413-9.889007-5.52044-6.592705-8.28061-15.249001-8.28061-25.969149v-12.214185c0-10.682796 2.76017-19.329754 8.28061-25.941135 5.52043-6.6113805 12.86174-9.91702121 22.02413-9.91702121 8.74068 0 15.78488 2.22243641 21.1328 6.66737591 5.34793 4.4449393 7.94517 10.7947583 7.79183 19.0496453l-.11501.336171h-2.64519c0-7.35843-2.34807-13.035914-7.04427-17.0326247-4.69621-3.9967104-11.06953-5.9950356-19.12016-5.9950356-8.16565 0-14.74024 3.0068258-19.72396 9.0205673-4.98373 6.013742-7.47555 13.913663-7.47555 23.7v12.326242c0 9.898395 2.49182 17.845006 7.47555 23.840071 4.98372 5.995065 11.55831 8.992553 19.72396 8.992553 8.05063 0 14.42395-1.923621 19.12016-5.770922 4.6962-3.8473 7.04427-9.636841 7.04427-17.368794zm28.88897-14.847518h-12.82345v39.83617h-3.10523v-81.5773055h3.10523v38.7716315h13.68601l35.53762-38.7716315h3.68028l.115.2801419-36.74521 40.3964546 39.39041 40.564539-.17251.33617h-3.62277z" fill="#4a4a4a"/><path d="m317.73025 3.4187791c0 .4081495-.15708.765275-.47126 1.0713872-.31417.3061122-.68071.459166-1.09961.459166h-51.52455c-.4189 0-.78543-.1530538-1.09961-.459166-.31417-.3061122-.47126-.6632377-.47126-1.0713872 0-.4081496.15709-.7652751.47126-1.0713873.31418-.3061122.68071-.459166 1.09961-.459166h51.52455c.4189 0 .78544.1530538 1.09961.459166.31418.3061122.47126.6632377.47126 1.0713873z" fill="url(#a)"/></g></svg>