<svg xmlns="http://www.w3.org/2000/svg" viewBox="0 0 111.77638 113.87973"><defs><style>.cls-1{fill:#fff;}</style></defs><g id="Layer_2" data-name="Layer 2"><g id="Layer_1-2" data-name="Layer 1"><path class="cls-1" d="M22.96385,112.66567c-37.68743-46.49991-11.18748-96.40313-7.18748-98.40313,6.51153-3.25576,1.4528,55.95472,11,55,10-1,18.00885-75.6938,29-68,10,7-9,53-12,74-4.16173,29.13211,46.52405-2.26024,44,1-24,31-57.37271,22.27977-46,29,22,13,54,10,70-18"/><path d="M22.96385,112.66567A86.98241,86.98241,0,0,1,5.3856,85.39666,74.11639,74.11639,0,0,1,.15593,52.866,82.98516,82.98516,0,0,1,9.11424,21.19308,39.09069,39.09069,0,0,1,13.637,14a5.61781,5.61781,0,0,1,1.08364-.97427,2.7186,2.7186,0,0,1,.40918-.24637,5.11555,5.11555,0,0,1,.54218-.18881,2.57553,2.57553,0,0,1,1.36661.05957,3.07277,3.07277,0,0,1,1.58,1.30142,6.6084,6.6084,0,0,1,.59327,1.20831,21.78676,21.78676,0,0,1,.95334,4.24832c.38171,2.74469.55722,5.4404.715,8.136l.42255,8.05557c.25278,5.357.48572,10.70246.92914,16.00482.22427,2.649.50174,5.289.9179,7.87949.21054,1.29327.45853,2.57474.78147,3.81042a14.34491,14.34491,0,0,0,1.27383,3.40973A3.18064,3.18064,0,0,0,26.08,67.75063a.8284.8284,0,0,0,.74939.1243,2.73376,2.73376,0,0,0,1.06143-.78729,9.27146,9.27146,0,0,0,1.05945-1.40247,39.35758,39.35758,0,0,0,3.21829-7.055c1.79953-4.97513,3.265-10.1254,4.72446-15.27084,2.92239-10.30155,5.41968-20.74887,8.91241-30.95884a57.98475,57.98475,0,0,1,3.12409-7.51882,15.15478,15.15478,0,0,1,2.38257-3.47739A4.9003,4.9003,0,0,1,53.27782.13723a3.20353,3.20353,0,0,1,2.48471.27643,6.3885,6.3885,0,0,1,2.79412,3.47528,15.54343,15.54343,0,0,1,.84253,4.14361,45.13616,45.13616,0,0,1-.28888,8.19587c-1.34741,10.77673-4.15014,21.1969-6.73715,31.60772l-1.96377,7.79264c-.66346,2.59033-1.31522,5.17868-1.92569,7.76736-.60807,2.588-1.18393,5.17764-1.65805,7.75812-.23682,1.28979-.44953,2.57739-.61863,3.85458a21.86252,21.86252,0,0,0-.25656,3.61231,9.65893,9.65893,0,0,0,.53693,3.14737,4.616,4.616,0,0,0,1.51923,2.12216c1.33926,1.05624,3.62582,1.40021,5.989,1.26373a34.88827,34.88827,0,0,0,7.32727-1.34006c2.46988-.66635,4.93652-1.49575,7.38132-2.42068,4.90445-1.852,9.67825-4.07623,14.54348-6.37293l1.88447-.86126c.33016-.14441.66189-.28766,1.0657-.44028a6.35374,6.35374,0,0,1,.83258-.258,3.70133,3.70133,0,0,1,.47632-.07525c.33227.11776.50708-.41053,2.19485.76971a2.6756,2.6756,0,0,1,.51032,3.18372,3.1685,3.1685,0,0,1-.34567.54635c-.86536,1.0871-1.74747,2.16147-2.66977,3.203A70.65928,70.65928,0,0,1,81.31428,87.014a64.03512,64.03512,0,0,1-13.79354,9.36053,70.85587,70.85587,0,0,1-15.6052,5.55732c-2.66769.63342-5.377,1.11541-7.985,1.58511-.64747.11975-1.29068.24094-1.88181.37793-.28711.0694-.58044.14127-.80429.21631-.20865.05142-.46014.20181-.2847.07559a1.281,1.281,0,0,0,.3967-.92923,1.259,1.259,0,0,0-.07916-.50354.76955.76955,0,0,0-.06757-.12906.11479.11479,0,0,0-.02-.03592,1.80637,1.80637,0,0,0,.31415.29077,13.33247,13.33247,0,0,0,1.481.98533,52.12334,52.12334,0,0,0,14.32342,6.0097,49.72693,49.72693,0,0,0,30.87586-1.94827,47.8237,47.8237,0,0,0,13.40225-8.378,53.50281,53.50281,0,0,0,10.18994-12.28608,53.92548,53.92548,0,0,1-9.62,12.89911,47.39762,47.39762,0,0,1-13.34812,9.20069,51.97726,51.97726,0,0,1-32.1568,3.37332,55.39947,55.39947,0,0,1-15.48782-5.74188,16.02767,16.02767,0,0,1-1.90375-1.17875,5.0608,5.0608,0,0,1-1.13174-1.09375l-.16193-.24331a3.02512,3.02512,0,0,1-.17047-.35773,2.3858,2.3858,0,0,1,.68726-2.77188,4.57587,4.57587,0,0,1,1.49948-.825c.40735-.15085.76318-.249,1.12378-.35053.70855-.191,1.37844-.34069,2.044-.48919,2.64936-.57621,5.20352-1.12732,7.73056-1.824A64.19752,64.19752,0,0,0,77.883,83.21365,65.48089,65.48089,0,0,0,83.24571,77.654c.84125-.97744,1.64572-1.9873,2.43582-3.00845a1.73607,1.73607,0,0,0-.20843.3364,2.5033,2.5033,0,0,0,.52343,2.95376c1.62336,1.12259,1.704.60578,1.95533.72479a1.71107,1.71107,0,0,0,.22894-.03222c.10535-.027-.03046.01043-.1239.0484-.22309.08444-.5076.2052-.79083.33047l-1.77066.81391c-4.82422,2.2882-9.77314,4.61093-14.89963,6.5578-5.14179,1.92389-10.44156,3.68234-16.39054,3.94088a19.166,19.166,0,0,1-4.624-.37057,11.18494,11.18494,0,0,1-4.67779-2.13977A9.61318,9.61318,0,0,1,41.866,83.436a14.46349,14.46349,0,0,1-.74264-4.75327,24.74777,24.74777,0,0,1,.40832-4.39154c.23871-1.37216.51856-2.72028.82019-4.05627.60388-2.67145,1.3-5.29175,2.02414-7.89621,1.4418-5.20856,3.04965-10.334,4.66748-15.44654,1.60648-5.11432,3.20758-10.22,4.65073-15.36032A130.79764,130.79764,0,0,0,57.281,15.98644a38.92535,38.92535,0,0,0,.51123-7.84155,14.03653,14.03653,0,0,0-.66977-3.72772,4.89579,4.89579,0,0,0-2.047-2.72495,1.7387,1.7387,0,0,0-1.38672-.17831,3.51654,3.51654,0,0,0-1.37118.89575A13.88717,13.88717,0,0,0,50.1591,5.53472,51.0205,51.0205,0,0,0,47.129,12.858c-1.73675,5.03693-3.055,10.22992-4.39126,15.41147L38.88627,43.887c-1.30465,5.2113-2.64944,10.42007-4.40466,15.56393a41.53382,41.53382,0,0,1-3.30548,7.61471A11.84858,11.84858,0,0,1,29.848,68.88955a5.25887,5.25887,0,0,1-2.16022,1.54693,3.5212,3.5212,0,0,1-3.08966-.40805,5.74286,5.74286,0,0,1-1.746-1.94979,16.81952,16.81952,0,0,1-1.57073-4.08606c-.35968-1.35688-.62494-2.70966-.85053-4.0607-.4444-2.70176-.73633-5.39676-.97485-8.088-.46982-5.38189-.72177-10.75055-1.00882-16.10134-.28986-5.33481-.54123-10.7211-1.34043-15.86744a19.16046,19.16046,0,0,0-.86352-3.5711l-.15207-.34067c-.05249-.079-.10346-.19461-.14673-.24814-.08768-.15207-.14886-.09054.10165.00369a.67142.67142,0,0,0,.37784.01932.08407.08407,0,0,0,.06949-.01791c.01566-.01239-.00241.02942-.0043.03448.02109-.03344-.21771.23987-.36469.40924a23.2391,23.2391,0,0,0-1.97259,3.11377c-.29694.57016-.59613,1.14307-.87677,1.724l-.79627,1.7775c-4.04144,9.65219-5.76315,20.1391-6.31146,30.4368a96.41343,96.41343,0,0,0,3.20163,30.8367A84.99439,84.99439,0,0,0,14.87462,98.8507c1.22693,2.34579,2.41458,4.73523,3.83752,6.9902C20.02418,108.17327,21.63243,110.29967,22.96385,112.66567Z"/></g></g></svg>