<svg width="90" height="90" viewBox="0 0 90 90" fill="none" xmlns="http://www.w3.org/2000/svg">
<path d="M34.4581 75.1116C35.4139 75.1116 36.1888 74.3367 36.1888 73.3808C36.1888 72.4249 35.4139 71.65 34.4581 71.65C33.5022 71.65 32.7273 72.4249 32.7273 73.3808C32.7273 74.3367 33.5022 75.1116 34.4581 75.1116Z" fill="#FB3D54" fill-opacity="0.6"/>
<path d="M49.1696 75.1116C50.1255 75.1116 50.9004 74.3367 50.9004 73.3808C50.9004 72.4249 50.1255 71.65 49.1696 71.65C48.2137 71.65 47.4388 72.4249 47.4388 73.3808C47.4388 74.3367 48.2137 75.1116 49.1696 75.1116Z" fill="#FB3D54" fill-opacity="0.6"/>
<path d="M66.2019 12.8038C66.9188 12.8038 67.5 12.2226 67.5 11.5057C67.5 10.7888 66.9188 10.2076 66.2019 10.2076C65.485 10.2076 64.9039 10.7888 64.9039 11.5057C64.9039 12.2226 65.485 12.8038 66.2019 12.8038Z" fill="#FB3D54" fill-opacity="0.6"/>
<path d="M80.0481 32.7076C80.765 32.7076 81.3462 32.1264 81.3462 31.4095C81.3462 30.6926 80.765 30.1115 80.0481 30.1115C79.3312 30.1115 78.75 30.6926 78.75 31.4095C78.75 32.1264 79.3312 32.7076 80.0481 32.7076Z" fill="#FB3D54" fill-opacity="0.6"/>
<path d="M73.9904 43.9576C74.7073 43.9576 75.2885 43.3764 75.2885 42.6595C75.2885 41.9426 74.7073 41.3615 73.9904 41.3615C73.2735 41.3615 72.6923 41.9426 72.6923 42.6595C72.6923 43.3764 73.2735 43.9576 73.9904 43.9576Z" fill="#FB3D54" fill-opacity="0.6"/>
<path d="M80.9135 69.0539C81.6304 69.0539 82.2115 68.4727 82.2115 67.7558C82.2115 67.0389 81.6304 66.4578 80.9135 66.4578C80.1965 66.4578 79.6154 67.0389 79.6154 67.7558C79.6154 68.4727 80.1965 69.0539 80.9135 69.0539Z" fill="#FB3D54" fill-opacity="0.6"/>
<path d="M25.5288 10.2076C26.2458 10.2076 26.8269 9.62644 26.8269 8.90953C26.8269 8.19262 26.2458 7.61145 25.5288 7.61145C24.8119 7.61145 24.2308 8.19262 24.2308 8.90953C24.2308 9.62644 24.8119 10.2076 25.5288 10.2076Z" fill="#FB3D54" fill-opacity="0.6"/>
<path d="M10.8173 24.9192C11.5342 24.9192 12.1154 24.338 12.1154 23.6211C12.1154 22.9042 11.5342 22.323 10.8173 22.323C10.1004 22.323 9.51923 22.9042 9.51923 23.6211C9.51923 24.338 10.1004 24.9192 10.8173 24.9192Z" fill="#FB3D54" fill-opacity="0.6"/>
<path d="M9.08654 43.9576C9.80344 43.9576 10.3846 43.3764 10.3846 42.6595C10.3846 41.9426 9.80344 41.3615 9.08654 41.3615C8.36963 41.3615 7.78846 41.9426 7.78846 42.6595C7.78846 43.3764 8.36963 43.9576 9.08654 43.9576Z" fill="#FB3D54" fill-opacity="0.6"/>
<path d="M43.0932 52.228L47.3398 56.4746C47.6775 56.8126 48.2258 56.8126 48.5635 56.4746C48.9015 56.1367 48.9015 55.5888 48.5635 55.2508L44.317 51.0041C45.2414 49.3097 44.3658 47.1783 42.503 46.6256V38.4988C42.503 38.0209 42.1155 37.6334 41.6376 37.6334C41.1598 37.6334 40.7722 38.0209 40.7722 38.4988V46.6256C39.511 46.9997 38.5877 48.1676 38.5877 49.5487C38.5878 51.8721 41.086 53.3228 43.0932 52.228ZM41.6376 48.2294C42.3651 48.2294 42.9568 48.8211 42.9568 49.5486C42.9568 50.2758 42.3651 50.8676 41.6376 50.8676C40.9102 50.8676 40.3184 50.2758 40.3184 49.5486C40.3186 48.8211 40.9104 48.2294 41.6376 48.2294Z" fill="#FB3D54" fill-opacity="0.6"/>
<path d="M71.8269 75.5863L64.2908 75.5862C63.0564 75.5862 62.0573 74.5871 62.0573 73.3524C62.0573 72.1208 63.0594 71.1187 64.291 71.1187H71.8268C72.431 71.1187 72.8498 70.5133 72.6364 69.9476C71.2274 66.2139 67.8339 63.7442 63.8965 63.5324C71.4102 52.2813 69.3021 37.0461 58.7617 28.2287L59.6143 27.1353L64.6034 31.0258C64.9814 31.3205 65.525 31.2509 65.818 30.8755C69.1596 26.59 68.3917 20.385 64.1061 17.0434C59.8458 13.721 53.6514 14.4237 50.274 18.7551C49.9803 19.1321 50.0474 19.6759 50.4244 19.9698L55.4133 23.86L54.3479 25.2266C51.5025 23.6819 48.3464 22.639 45 22.217V18.0291H45.8654C47.6482 18.0291 49.0986 16.5787 49.0986 14.7958C49.0986 13.0131 47.6482 11.5627 45.8654 11.5627H37.6913C35.9084 11.5627 34.4581 13.0131 34.4581 14.7958C34.4581 16.5787 35.9084 18.0291 37.6913 18.0291H38.5567V22.1848C35.1685 22.5756 31.9715 23.6018 29.0878 25.1418L28.0885 23.8602L33.0778 19.9698C33.4544 19.6761 33.5219 19.1321 33.228 18.7551C29.852 14.4256 23.6587 13.7195 19.3959 17.0434C15.1105 20.385 14.3427 26.5901 17.6841 30.8755C17.978 31.2523 18.5218 31.3195 18.8988 31.0258L23.8879 27.1353L24.6505 28.1132C13.9441 36.949 11.8608 52.2954 19.3912 63.5512C15.5911 63.8699 12.2756 66.3646 10.9862 69.9611C10.7839 70.525 11.2029 71.1187 11.8009 71.1187H19.2714C20.5032 71.1187 21.5053 72.1208 21.5053 73.3524C21.5053 74.584 20.5034 75.5862 19.2716 75.5862H11.8009C11.2031 75.5862 10.7841 76.1796 10.9862 76.7437C12.3824 80.6379 16.0922 83.2543 20.2175 83.2543C23.8453 83.2543 27.0202 81.2852 28.7353 78.3611H54.8046C56.4816 81.2459 59.5956 83.2247 63.2634 83.2541L63.3451 83.2545C67.5 83.2545 71.1471 80.7042 72.6366 76.7574C72.737 76.4915 72.7003 76.1933 72.5388 75.9596C72.3771 75.7256 72.1111 75.5863 71.8269 75.5863ZM63.0419 18.4079C66.344 20.983 67.1128 25.6207 64.9488 29.1005L52.2066 19.1645C55.0885 16.1749 59.7697 15.8566 63.0419 18.4079ZM56.7784 24.9239L58.2492 26.0707L57.3987 27.1615C56.8966 26.7937 56.3814 26.4429 55.8535 26.1099L56.7784 24.9239ZM36.189 14.7953C36.189 13.967 36.863 13.293 37.6915 13.293H45.8654C46.6937 13.293 47.3679 13.967 47.3679 14.7953C47.3679 15.6238 46.6937 16.2978 45.8654 16.2978H44.3563C44.2852 16.2789 44.2118 16.2654 44.1346 16.2654C39.1464 16.2791 39.4335 16.2356 39.2004 16.2978H37.6913C36.863 16.2978 36.189 15.6238 36.189 14.7953ZM40.2875 18.0286H43.2692V22.0569C42.2682 21.9962 41.3188 21.988 40.2875 22.0396V18.0286ZM18.553 29.1005C16.3893 25.6207 17.1578 20.9831 20.4601 18.4079C23.7349 15.8544 28.4158 16.1771 31.2954 19.1645C29.9291 20.2297 22.1012 26.3335 18.553 29.1005ZM25.2528 26.0709L26.7236 24.9241L27.5741 26.0148C27.0438 26.3444 26.5258 26.6916 26.0209 27.0562L25.2528 26.0709ZM41.6376 23.7365C55.4211 23.7365 66.6348 34.9503 66.6348 48.7338C66.6348 54.1665 64.9262 59.3176 61.6914 63.6549C58.7302 64.1491 56.2805 65.9309 54.8488 68.3439H50.0348C57.5739 65.1032 62.9702 57.6126 62.9702 48.6573C62.9289 36.9289 53.3754 27.4 41.6375 27.4C29.7954 27.4 20.3045 37.07 20.3045 48.6729C20.3045 57.5543 25.6535 65.083 33.2401 68.3439H28.6979C27.1906 65.8177 24.5875 64.0199 21.5491 63.608C18.3371 59.2806 16.6406 54.1461 16.6406 48.734C16.6406 34.9503 27.8543 23.7365 41.6376 23.7365ZM29.9754 60.3275C29.6375 59.9898 29.0896 59.9897 28.7515 60.3275L27.1518 61.9273C24.1418 58.6253 22.2438 54.2939 22.0522 49.5306H24.2794C24.7573 49.5306 25.1448 49.1431 25.1448 48.6652C25.1448 48.1872 24.7573 47.7999 24.2794 47.7999H22.0576C22.2812 43.056 24.1991 38.7485 27.2179 35.4692L28.7515 37.0028C28.9206 37.1717 29.142 37.2562 29.3635 37.2562C30.1273 37.2562 30.5226 36.3261 29.9755 35.7788L28.4443 34.2476C31.7304 31.252 36.036 29.3576 40.7724 29.1508V31.3067C40.7724 31.7845 41.1599 32.1721 41.6378 32.1721C42.1157 32.1721 42.5032 31.7845 42.5032 31.3067V29.1508C47.2396 29.3576 51.5452 31.2521 54.8315 34.2478L53.3002 35.779C52.7535 36.3256 53.1479 37.2564 53.9121 37.2564C54.1334 37.2564 54.3552 37.1719 54.5239 37.003L56.0575 35.4693C59.0765 38.7486 60.9942 43.0562 61.2178 47.8002H58.996C58.518 47.8002 58.1307 48.1875 58.1307 48.6656C58.1307 49.1435 58.518 49.531 58.996 49.531H61.223C61.0316 54.2942 59.1336 58.6256 56.1235 61.9276L54.5237 60.3279C54.1861 59.99 53.6377 59.99 53.3001 60.3279C52.9621 60.6659 52.9621 61.2138 53.3001 61.5517L54.9023 63.1539C51.6072 66.1874 47.2739 68.1085 42.503 68.3169V66.0236C42.503 65.5456 42.1155 65.1583 41.6376 65.1583C41.1598 65.1583 40.7722 65.5456 40.7722 66.0236V68.3166C36.0016 68.1082 31.6682 66.187 28.3732 63.1535L29.9754 61.5513C30.3134 61.2135 30.3134 60.6655 29.9754 60.3275ZM20.2176 81.5234C17.2478 81.5234 14.539 79.8753 13.1362 77.3167H19.2718C21.4576 77.3167 23.2359 75.5382 23.2359 73.3522C23.2359 71.1663 21.4576 69.3879 19.2714 69.3877H13.1393C14.5352 66.8679 17.2407 65.2464 20.2175 65.2464C24.705 65.2464 28.3561 68.8972 28.3561 73.385C28.3561 77.8725 24.7052 81.5234 20.2176 81.5234ZM29.5361 76.6301C30.2801 74.4992 30.2682 72.1861 29.5141 70.0747H54.0398C53.2868 72.2099 53.2966 74.5458 54.0128 76.6301H29.5361ZM56.2384 77.3758C56.2104 77.1759 56.1162 76.9979 55.9758 76.8664C54.9088 74.5916 54.9772 71.9517 56.0186 69.795C56.1237 69.6813 56.2007 69.5409 56.2327 69.3832C59.2633 63.9344 67.3143 63.8024 70.47 69.3879H64.2908C62.1049 69.3881 60.3265 71.1665 60.3265 73.3524C60.3265 75.5432 62.0995 77.3169 64.2906 77.3169C68.0442 77.3171 66.5361 77.3169 70.4733 77.3171C67.3216 82.9509 59.3159 82.8806 56.2384 77.3758Z" fill="#FB3D54" fill-opacity="0.6"/>
<path d="M77.8846 11.0734C74.0672 11.0734 70.9615 14.1791 70.9615 17.9964C70.9615 21.8138 74.0672 24.9195 77.8846 24.9195C81.702 24.9195 84.8077 21.8138 84.8077 17.9964C84.8077 14.1789 81.702 11.0734 77.8846 11.0734ZM77.8846 23.1888C75.0216 23.1888 72.6923 20.8595 72.6923 17.9964C72.6923 15.1334 75.0216 12.8041 77.8846 12.8041C80.7477 12.8041 83.0769 15.1334 83.0769 17.9964C83.0769 20.8595 80.7477 23.1888 77.8846 23.1888Z" fill="#FB3D54" fill-opacity="0.6"/>
<path d="M13.8461 59.5349C13.8461 57.1491 11.9051 55.208 9.51923 55.208C7.13336 55.208 5.1923 57.1491 5.1923 59.5349C5.1923 61.9208 7.13336 63.8618 9.51923 63.8618C11.9051 63.8618 13.8461 61.921 13.8461 59.5349ZM9.51923 62.1311C8.08771 62.1311 6.92307 60.9664 6.92307 59.5349C6.92307 58.1034 8.08771 56.9388 9.51923 56.9388C10.9507 56.9388 12.1154 58.1034 12.1154 59.5349C12.1154 60.9664 10.9507 62.1311 9.51923 62.1311Z" fill="#FB3D54" fill-opacity="0.6"/>
</svg>
