<svg width="90" height="90" viewBox="0 0 90 90" fill="none" xmlns="http://www.w3.org/2000/svg">
<path d="M80.5957 34.8926C81.3238 34.8926 81.9141 34.3023 81.9141 33.5742C81.9141 32.8461 81.3238 32.2559 80.5957 32.2559C79.8676 32.2559 79.2773 32.8461 79.2773 33.5742C79.2773 34.3023 79.8676 34.8926 80.5957 34.8926Z" fill="#FB3D54" fill-opacity="0.6"/>
<path d="M78.8379 64.7754C79.566 64.7754 80.1562 64.1851 80.1562 63.457C80.1562 62.7289 79.566 62.1387 78.8379 62.1387C78.1098 62.1387 77.5195 62.7289 77.5195 63.457C77.5195 64.1851 78.1098 64.7754 78.8379 64.7754Z" fill="#FB3D54" fill-opacity="0.6"/>
<path d="M65.6543 80.5957C66.3824 80.5957 66.9727 80.0055 66.9727 79.2773C66.9727 78.5492 66.3824 77.959 65.6543 77.959C64.9262 77.959 64.3359 78.5492 64.3359 79.2773C64.3359 80.0055 64.9262 80.5957 65.6543 80.5957Z" fill="#FB3D54" fill-opacity="0.6"/>
<path d="M59.502 7.64648C60.2301 7.64648 60.8203 7.05623 60.8203 6.32812C60.8203 5.60002 60.2301 5.00977 59.502 5.00977C58.7738 5.00977 58.1836 5.60002 58.1836 6.32812C58.1836 7.05623 58.7738 7.64648 59.502 7.64648Z" fill="#FB3D54" fill-opacity="0.6"/>
<path d="M24.3457 80.5957C25.0738 80.5957 25.6641 80.0055 25.6641 79.2773C25.6641 78.5492 25.0738 77.959 24.3457 77.959C23.6176 77.959 23.0273 78.5492 23.0273 79.2773C23.0273 80.0055 23.6176 80.5957 24.3457 80.5957Z" fill="#FB3D54" fill-opacity="0.6"/>
<path d="M19.9512 10.2832C20.6793 10.2832 21.2695 9.69295 21.2695 8.96484C21.2695 8.23673 20.6793 7.64648 19.9512 7.64648C19.2231 7.64648 18.6328 8.23673 18.6328 8.96484C18.6328 9.69295 19.2231 10.2832 19.9512 10.2832Z" fill="#FB3D54" fill-opacity="0.6"/>
<path d="M8.52539 39.2871C9.2535 39.2871 9.84375 38.6969 9.84375 37.9688C9.84375 37.2406 9.2535 36.6504 8.52539 36.6504C7.79728 36.6504 7.20703 37.2406 7.20703 37.9688C7.20703 38.6969 7.79728 39.2871 8.52539 39.2871Z" fill="#FB3D54" fill-opacity="0.6"/>
<path d="M45 11.1621C29.4917 11.1621 16.875 23.779 16.875 39.2871C16.875 50.9071 24.0896 61.3782 34.8926 65.5388V67.4425C34.1195 67.5385 33.4046 67.8834 32.8482 68.4418C32.1827 69.1049 31.8164 69.9878 31.8164 70.9277C31.8164 71.978 32.2815 72.9195 33.0142 73.5643C32.9583 73.6137 32.9012 73.662 32.8482 73.7153C32.1827 74.3783 31.8164 75.2613 31.8164 76.2012C31.8164 78.1397 33.3935 79.7168 35.332 79.7168H37.9688V80.7275C37.9688 83.0779 39.8809 84.9902 42.2314 84.9902H47.7686C50.1189 84.9902 52.0312 83.0779 52.0312 80.7275V79.7168H54.668C55.6079 79.7168 56.4905 79.3503 57.1511 78.6872C57.8167 78.024 58.1836 77.1413 58.1836 76.2012C58.1836 75.1507 57.7179 74.2092 56.9856 73.5645C57.0412 73.5152 57.0983 73.4669 57.1511 73.4138C57.8167 72.7506 58.1836 71.8678 58.1836 70.9277C58.1836 69.1383 56.8389 67.66 55.1074 67.4427V65.5388C65.9099 61.3782 73.125 50.9071 73.125 39.2871C73.125 23.779 60.5083 11.1621 45 11.1621ZM50.2734 80.7275C50.2734 82.1087 49.1498 83.2324 47.7686 83.2324H42.2314C40.8503 83.2324 39.7266 82.1087 39.7266 80.7275V79.7168H50.2734V80.7275ZM56.4258 76.2012C56.4258 76.6705 56.2428 77.111 55.9085 77.4441C55.5778 77.7762 55.1373 77.959 54.668 77.959H51.1523H38.8477H35.332C34.3626 77.959 33.5742 77.1704 33.5742 76.2012C33.5742 75.732 33.7569 75.2913 34.0912 74.9582C34.422 74.6262 34.8627 74.4434 35.332 74.4434H54.668C55.6371 74.4434 56.4258 75.2319 56.4258 76.2012ZM56.4258 70.9277C56.4258 71.3971 56.2428 71.8376 55.9085 72.1707C55.5778 72.5027 55.1373 72.6855 54.668 72.6855H35.332C34.3626 72.6855 33.5742 71.897 33.5742 70.9277C33.5742 70.4586 33.7569 70.0179 34.0912 69.6848C34.422 69.3527 34.8627 69.1699 35.332 69.1699H54.668C55.6371 69.1699 56.4258 69.9585 56.4258 70.9277ZM53.9309 64.1014C53.582 64.227 53.3496 64.5578 53.3496 64.9283V67.4121H45.8789V44.0924C46.8123 44.9293 48.0447 45.4395 49.3945 45.4395C52.3021 45.4395 54.668 43.0738 54.668 40.166C54.668 37.2582 52.3021 34.8926 49.3945 34.8926C47.5618 34.8926 45.9455 35.8327 45 37.2554C44.0545 35.8327 42.438 34.8926 40.6055 34.8926C37.6975 34.8926 35.332 37.2582 35.332 40.166C35.332 43.0738 37.6975 45.4395 40.6055 45.4395C41.9551 45.4395 43.1873 44.9293 44.1211 44.0924V67.4121H36.6504V64.9283C36.6504 64.5578 36.4178 64.227 36.0691 64.1014C25.6398 60.3475 18.6328 50.3754 18.6328 39.2871C18.6328 24.7482 30.461 12.9199 45 12.9199C59.5389 12.9199 71.3672 24.7482 71.3672 39.2871C71.3672 50.3754 64.36 60.3475 53.9309 64.1014ZM45.8789 40.166C45.8789 38.2275 47.4558 36.6504 49.3945 36.6504C51.3327 36.6504 52.9102 38.2275 52.9102 40.166C52.9102 42.1045 51.3327 43.6816 49.3945 43.6816C47.4558 43.6816 45.8789 42.1045 45.8789 40.166ZM44.1211 40.166C44.1211 42.1045 42.5438 43.6816 40.6055 43.6816C38.667 43.6816 37.0898 42.1045 37.0898 40.166C37.0898 38.2275 38.667 36.6504 40.6055 36.6504C42.5438 36.6504 44.1211 38.2275 44.1211 40.166Z" fill="#FB3D54" fill-opacity="0.6"/>
<path d="M45 19.0723C33.7168 19.0723 24.5373 28.2517 24.5373 39.535C24.5373 40.0203 24.9307 40.4139 25.4162 40.4139C25.9015 40.4139 26.2951 40.0203 26.2951 39.535C26.2951 29.221 34.6858 20.8301 45 20.8301C55.3138 20.8301 63.7049 29.221 63.7049 39.535C63.7049 40.0203 64.0983 40.4139 64.5838 40.4139C65.0693 40.4139 65.4627 40.0203 65.4627 39.535C65.4625 28.2517 56.283 19.0723 45 19.0723Z" fill="#FB3D54" fill-opacity="0.6"/>
<path d="M82.793 13.7988C82.793 10.4064 80.0329 7.64648 76.6406 7.64648C73.248 7.64648 70.4883 10.4064 70.4883 13.7988C70.4883 17.1912 73.248 19.9512 76.6406 19.9512C80.0329 19.9512 82.793 17.1912 82.793 13.7988ZM76.6406 18.1934C74.2173 18.1934 72.2461 16.222 72.2461 13.7988C72.2461 11.3757 74.2173 9.4043 76.6406 9.4043C79.0636 9.4043 81.0352 11.3757 81.0352 13.7988C81.0352 16.222 79.0636 18.1934 76.6406 18.1934Z" fill="#FB3D54" fill-opacity="0.6"/>
<path d="M15.1172 63.0176C12.2092 63.0176 9.84375 65.3832 9.84375 68.291C9.84375 71.1988 12.2092 73.5645 15.1172 73.5645C18.0248 73.5645 20.3906 71.1988 20.3906 68.291C20.3906 65.3832 18.0248 63.0176 15.1172 63.0176ZM15.1172 71.8066C13.1787 71.8066 11.6016 70.2295 11.6016 68.291C11.6016 66.3525 13.1787 64.7754 15.1172 64.7754C17.0555 64.7754 18.6328 66.3525 18.6328 68.291C18.6328 70.2295 17.0555 71.8066 15.1172 71.8066Z" fill="#FB3D54" fill-opacity="0.6"/>
</svg>
