<svg width="90" height="90" viewBox="0 0 90 90" fill="none" xmlns="http://www.w3.org/2000/svg">
<path d="M45.1731 69.8365C46.1289 69.8365 46.9038 69.0616 46.9038 68.1058C46.9038 67.1499 46.1289 66.375 45.1731 66.375C44.2172 66.375 43.4423 67.1499 43.4423 68.1058C43.4423 69.0616 44.2172 69.8365 45.1731 69.8365Z" fill="#FB3D54" fill-opacity="0.6"/>
<path d="M29.5962 76.5869H15.75C15.2721 76.5869 14.8846 76.9743 14.8846 77.4523C14.8846 77.9302 15.2721 78.3177 15.75 78.3177H29.5962C30.074 78.3177 30.4615 77.9302 30.4615 77.4523C30.4615 76.9743 30.074 76.5869 29.5962 76.5869Z" fill="#FB3D54" fill-opacity="0.6"/>
<path d="M78.6345 16.8755H11.3654C8.4387 16.8755 6.05768 19.2565 6.05768 22.1832V68.8564C6.05768 71.7829 8.4387 74.1639 11.3654 74.1639H35.6538V83.5101H33.2308C32.7529 83.5101 32.3654 83.8974 32.3654 84.3755C32.3654 84.8533 32.7529 85.2409 33.2308 85.2409H36.5192H57.1154C57.5934 85.2409 57.9808 84.8533 57.9808 84.3755C57.9808 83.8974 57.5934 83.5101 57.1154 83.5101H54.6923V74.1639H59.7115V81.0294C59.7115 83.3516 61.6008 85.2409 63.923 85.2409H79.7308C82.053 85.2409 83.9423 83.3516 83.9423 81.0294C83.9423 74.1001 83.9423 28.5796 83.9423 22.1832C83.9423 19.2565 81.5613 16.8755 78.6345 16.8755ZM37.3846 74.1639H40.096V83.5101H37.3846V74.1639ZM41.8268 83.5101V74.1639H48.5192V83.5101H41.8268ZM52.9615 83.5101H50.2499V74.1639H52.9615V83.5101ZM11.3654 72.4332C9.39304 72.4332 7.78845 70.8286 7.78845 68.8564V22.1832C7.78845 20.2109 9.39304 18.6063 11.3654 18.6063H78.6345C80.6068 18.6063 82.2115 20.2109 82.2115 22.1832V49.7059C81.5152 49.1966 80.6576 48.8949 79.7308 48.8949H78.9231V22.933C78.9231 22.4551 78.5357 22.0676 78.0577 22.0676H12.1154C11.6375 22.0676 11.25 22.4551 11.25 22.933V62.9139C11.25 63.3918 11.6375 63.7793 12.1154 63.7793H59.7115V72.4332C58.3797 72.4332 12.7014 72.4332 11.3654 72.4332ZM69.922 23.7984V24.8107L66.5396 25.5662C66.2119 25.6394 65.9563 25.8954 65.8834 26.2232C65.647 27.2871 65.2266 28.3017 64.6338 29.2387C64.455 29.5214 64.4552 29.8817 64.634 30.1642L66.4913 33.0978L65.5494 34.0399L62.6159 32.1826C62.3323 32.0031 61.9712 32.0036 61.6884 32.1836C60.7614 32.7736 59.7474 33.1935 58.6748 33.432C58.3472 33.5049 58.0912 33.7605 58.018 34.0882L57.2625 37.4704H55.9293L55.1738 34.0882C55.1006 33.7605 54.8446 33.5049 54.517 33.432C53.4531 33.1954 52.4383 32.775 51.5013 32.1824C51.2186 32.0038 50.8583 32.0036 50.5757 32.1826L47.6422 34.0399L46.7003 33.0978L48.5574 30.1642C48.7367 29.8808 48.7362 29.5194 48.5562 29.2366C47.9662 28.3098 47.5461 27.2959 47.3078 26.2232C47.2349 25.8954 46.9793 25.6394 46.6517 25.5662L43.2692 24.8107V23.7984H69.922ZM42.2152 26.3487L45.7522 27.1386C45.9974 28.031 46.3514 28.8851 46.809 29.6896L44.8669 32.757C44.6504 33.099 44.6999 33.5456 44.9863 33.8318L46.9078 35.7533C47.1939 36.0396 47.6404 36.0893 47.9826 35.8726L51.0509 33.93C51.8597 34.3886 52.7137 34.7427 53.6007 34.9871L54.3906 38.5245C54.4791 38.92 54.8299 39.2012 55.2352 39.2012H57.9553C58.3607 39.2012 58.7115 38.92 58.7999 38.5245L59.59 34.9873C60.4822 34.742 61.3365 34.3881 62.1408 33.9305L65.2083 35.8726C65.5506 36.0893 65.9972 36.0396 66.2831 35.7533L68.2046 33.8318C68.4909 33.5456 68.5404 33.099 68.3238 32.757L66.3812 29.6885C66.8397 28.8798 67.1938 28.0256 67.4382 27.1388L70.9757 26.3487C71.3712 26.2602 71.6525 25.9094 71.6525 25.5041V23.7984H77.1923V48.8947H63.923C61.6008 48.8947 59.7115 50.7839 59.7115 53.1062V62.0486H12.9808V23.7984H41.5384V25.5041C41.5384 25.9094 41.8197 26.2604 42.2152 26.3487ZM61.4423 56.6832H82.2115V77.4524H61.4423V56.6832ZM82.2115 54.9524H61.4423V53.1062C61.4423 51.7384 62.5552 50.6255 63.923 50.6255H79.7308C81.0986 50.6255 82.2115 51.7384 82.2115 53.1062V54.9524ZM79.7308 83.5101H63.923C62.5552 83.5101 61.4423 82.3972 61.4423 81.0294V79.1832H82.2115V81.0294C82.2115 82.3972 81.0986 83.5101 79.7308 83.5101Z" fill="#FB3D54" fill-opacity="0.6"/>
<path d="M38.5549 33.1853L35.4884 35.1321C34.6894 34.6767 33.8351 34.3218 32.9381 34.0722L32.1476 30.5329C32.0592 30.1375 31.7082 29.8562 31.303 29.8562H28.5829C28.1778 29.8562 27.8268 30.1375 27.7383 30.5329L26.9477 34.0722C26.0507 34.3218 25.1965 34.6767 24.3974 35.1321L21.3308 33.1853C20.989 32.9681 20.5418 33.0176 20.2552 33.3041L18.3337 35.2256C18.0474 35.5118 17.9979 35.9584 18.2144 36.3004L20.157 39.3689C19.6984 40.1776 19.3443 41.0316 19.0999 41.9186L15.5625 42.7087C15.1671 42.7972 14.8858 43.148 14.8858 43.5533V46.2734C14.8858 46.6786 15.1671 47.0296 15.5625 47.118L19.0997 47.9081C19.345 48.8002 19.6989 49.6546 20.1565 50.4589L18.2144 53.5264C17.9979 53.8686 18.0474 54.3149 18.3337 54.6012L20.2552 56.5227C20.5416 56.809 20.988 56.8585 21.33 56.6421L24.3985 54.6993C25.2072 55.158 26.0614 55.5121 26.9482 55.7565L27.7383 59.2938C27.8268 59.6893 28.1778 59.9706 28.5829 59.9706H31.303C31.7082 59.9706 32.0592 59.6893 32.1476 59.2938L32.9376 55.7565C33.8298 55.5112 34.6841 55.1573 35.4884 54.6998L38.5558 56.6419C38.8978 56.8583 39.3444 56.809 39.6306 56.5225L41.5521 54.601C41.8384 54.3147 41.8879 53.8684 41.6714 53.5262L39.7288 50.4579C40.1874 49.6489 40.5415 48.795 40.7859 47.9081L44.3233 47.118C44.7187 47.0296 45 46.6786 45 46.2734V43.5532C45 43.148 44.7187 42.797 44.3233 42.7085L40.7859 41.9185C40.5415 41.0316 40.1874 40.1775 39.7288 39.3687L41.6714 36.3002C41.8879 35.958 41.8384 35.5117 41.5521 35.2254L39.6306 33.3039C39.344 33.0173 38.8969 32.9681 38.5549 33.1853ZM37.9814 38.8931C37.8024 39.1757 37.8024 39.536 37.9812 39.8187C38.574 40.7557 38.9944 41.7703 39.2308 42.8342C39.3035 43.162 39.5593 43.418 39.8869 43.491L43.2692 44.2465V45.5797L39.8868 46.3354C39.5591 46.4086 39.3035 46.6646 39.2306 46.9922C38.9942 48.0559 38.5738 49.0705 37.981 50.0079C37.8024 50.2905 37.8024 50.6509 37.9814 50.9335L39.8387 53.867L38.8966 54.8089L35.9631 52.9518C35.6796 52.7723 35.3182 52.7728 35.0356 52.9528C34.1086 53.5428 33.0945 53.9629 32.022 54.2012C31.6943 54.2739 31.4384 54.5295 31.3652 54.8573L30.6097 58.2398H29.2763L28.5208 54.8573C28.4476 54.5297 28.1916 54.2739 27.864 54.2012C26.8003 53.9648 25.7857 53.5444 24.8485 52.9516C24.5657 52.7726 24.2055 52.7726 23.923 52.9518L20.9894 54.8089L20.0473 53.867L21.9046 50.9335C22.0839 50.6502 22.0836 50.2888 21.9036 50.006C21.3135 49.0786 20.8937 48.0648 20.6552 46.9924C20.5823 46.6646 20.3267 46.4088 19.999 46.3356L16.6167 45.5799V44.2467L19.999 43.4912C20.3267 43.418 20.5823 43.162 20.6552 42.8344C20.8917 41.7705 21.3122 40.7557 21.9048 39.8187C22.0836 39.536 22.0836 39.1757 21.9046 38.8931L20.0473 35.9596L20.9887 35.0182L23.922 36.8802C24.2057 37.0602 24.5681 37.0598 24.8516 36.879C25.7696 36.2928 26.7845 35.8706 27.8681 35.6243C28.1939 35.5503 28.4481 35.2953 28.5208 34.9691L29.2763 31.5868H30.6097L31.3652 34.9691C31.438 35.2951 31.6921 35.5503 32.0178 35.6243C33.1016 35.8706 34.1166 36.2928 35.0344 36.879C35.3177 37.0597 35.6801 37.0604 35.964 36.8802L38.8973 35.0182L39.8388 35.9596L37.9814 38.8931Z" fill="#FB3D54" fill-opacity="0.6"/>
<path d="M80.9463 65.619C80.3506 65.2387 79.7059 64.9431 79.0238 64.737L78.5359 62.5522C78.4475 62.1567 78.0966 61.8755 77.6913 61.8755H75.8835C75.4781 61.8755 75.1273 62.1567 75.0389 62.5522L74.551 64.737C74.0496 64.8884 73.5682 65.0883 73.1118 65.3346L71.2192 64.1333C70.8771 63.9162 70.43 63.9657 70.1436 64.2518L68.8664 65.529C68.5802 65.8152 68.5307 66.2618 68.7472 66.6039L69.9464 68.4979C69.6984 68.9587 69.4989 69.4398 69.3497 69.9369L67.1668 70.4244C66.7713 70.5129 66.4901 70.8637 66.4901 71.2691V73.0769C66.4901 73.482 66.7713 73.833 67.1668 73.9215L69.3495 74.4089C69.5523 75.0863 69.8471 75.7308 70.2289 76.3307C70.4854 76.7341 71.0211 76.8529 71.4236 76.5962C71.8267 76.3397 71.9458 75.8049 71.6891 75.4016C71.3151 74.8139 71.0489 74.1712 70.8978 73.4915C70.825 73.1637 70.5693 72.9079 70.2417 72.8347L68.2207 72.3833V71.9622L70.2417 71.511C70.5693 71.4378 70.825 71.1818 70.8978 70.8542C71.0477 70.1797 71.3143 69.5366 71.6904 68.942C71.8691 68.6594 71.869 68.2991 71.6902 68.0164L70.5801 66.263L70.8772 65.9658L72.6303 67.0787C72.9142 67.2589 73.2763 67.2584 73.5598 67.0775C74.1415 66.7061 74.7851 66.4385 75.473 66.282C75.7989 66.2079 76.0529 65.953 76.1256 65.6269L76.577 63.6059H76.9979L77.4493 65.6269C77.5222 65.953 77.7763 66.2079 78.1022 66.282C78.79 66.4383 79.4335 66.7061 80.0154 67.0775C80.4178 67.3349 80.9533 67.2166 81.2105 66.8139C81.4673 66.4111 81.3494 65.8762 80.9463 65.619Z" fill="#FB3D54" fill-opacity="0.6"/>
<path d="M29.9458 41.325C27.9654 41.325 26.3544 42.9361 26.3544 44.9165C26.3544 46.8935 27.9656 48.5019 29.9458 48.5019C31.9228 48.5019 33.5312 46.8935 33.5312 44.9165C33.5312 42.9361 31.9228 41.325 29.9458 41.325ZM29.9458 46.7712C28.9198 46.7712 28.0852 45.939 28.0852 44.9165C28.0852 43.8903 28.92 43.0557 29.9458 43.0557C30.9685 43.0557 31.8005 43.8905 31.8005 44.9165C31.8005 45.9392 30.9685 46.7712 29.9458 46.7712Z" fill="#FB3D54" fill-opacity="0.6"/>
<path d="M29.9458 37.5359C25.8762 37.5359 22.5654 40.8467 22.5654 44.9164C22.5654 48.9825 25.8762 52.2905 29.9458 52.2905C34.012 52.2905 37.3201 48.9825 37.3201 44.9164C37.3202 40.8467 34.012 37.5359 29.9458 37.5359ZM29.9458 50.5598C26.8306 50.5598 24.2962 48.0282 24.2962 44.9164C24.2962 41.8012 26.8306 39.2667 29.9458 39.2667C33.0577 39.2667 35.5893 41.8012 35.5893 44.9164C35.5895 48.0282 33.0577 50.5598 29.9458 50.5598Z" fill="#FB3D54" fill-opacity="0.6"/>
<path d="M15.5769 11.6831C17.4856 11.6831 19.0384 10.1302 19.0384 8.22155C19.0384 6.31286 17.4856 4.76001 15.5769 4.76001C13.6682 4.76001 12.1154 6.31286 12.1154 8.22155C12.1154 10.1301 13.6682 11.6831 15.5769 11.6831ZM15.5769 6.49061C16.5312 6.49061 17.3077 7.26703 17.3077 8.22138C17.3077 9.17572 16.5312 9.95215 15.5769 9.95215C14.6225 9.95215 13.8461 9.17572 13.8461 8.22138C13.8461 7.26703 14.6225 6.49061 15.5769 6.49061Z" fill="#FB3D54" fill-opacity="0.6"/>
<path d="M75.2884 15.1446C78.1515 15.1446 80.4807 12.8154 80.4807 9.95232C80.4807 7.08928 78.1515 4.76001 75.2884 4.76001C72.4254 4.76001 70.0961 7.08928 70.0961 9.95232C70.0961 12.8154 72.4254 15.1446 75.2884 15.1446ZM75.2884 6.49061C77.1971 6.49061 78.75 8.04345 78.75 9.95215C78.75 11.8608 77.1971 13.4137 75.2884 13.4137C73.3797 13.4137 71.8269 11.8608 71.8269 9.95215C71.8269 8.04363 73.3797 6.49061 75.2884 6.49061Z" fill="#FB3D54" fill-opacity="0.6"/>
<path d="M30.7211 9.08663C31.4381 9.08663 32.0192 8.50546 32.0192 7.78856C32.0192 7.07165 31.4381 6.49048 30.7211 6.49048C30.0042 6.49048 29.4231 7.07165 29.4231 7.78856C29.4231 8.50546 30.0042 9.08663 30.7211 9.08663Z" fill="#FB3D54" fill-opacity="0.6"/>
<path d="M63.6058 9.95187C64.3227 9.95187 64.9038 9.3707 64.9038 8.65379C64.9038 7.93688 64.3227 7.35571 63.6058 7.35571C62.8888 7.35571 62.3077 7.93688 62.3077 8.65379C62.3077 9.3707 62.8888 9.95187 63.6058 9.95187Z" fill="#FB3D54" fill-opacity="0.6"/>
<path d="M47.1634 14.279C47.8803 14.279 48.4615 13.6978 48.4615 12.9809C48.4615 12.264 47.8803 11.6829 47.1634 11.6829C46.4465 11.6829 45.8654 12.264 45.8654 12.9809C45.8654 13.6978 46.4465 14.279 47.1634 14.279Z" fill="#FB3D54" fill-opacity="0.6"/>
<path d="M46.7307 60.1446H57.1153C57.5934 60.1446 57.9807 59.7571 57.9807 59.2792C57.9807 58.8012 57.5934 58.4138 57.1153 58.4138H46.7307C46.2527 58.4138 45.8654 58.8012 45.8654 59.2792C45.8654 59.7571 46.2527 60.1446 46.7307 60.1446Z" fill="#FB3D54" fill-opacity="0.6"/>
<path d="M46.7307 56.6829H57.1153C57.5934 56.6829 57.9807 56.2954 57.9807 55.8175C57.9807 55.3395 57.5934 54.9521 57.1153 54.9521H46.7307C46.2527 54.9521 45.8654 55.3395 45.8654 55.8175C45.8654 56.2954 46.2527 56.6829 46.7307 56.6829Z" fill="#FB3D54" fill-opacity="0.6"/>
<path d="M46.7307 53.2215H57.1153C57.5934 53.2215 57.9807 52.834 57.9807 52.3561C57.9807 51.8781 57.5934 51.4907 57.1153 51.4907H46.7307C46.2527 51.4907 45.8654 51.8781 45.8654 52.3561C45.8654 52.834 46.2527 53.2215 46.7307 53.2215Z" fill="#FB3D54" fill-opacity="0.6"/>
<path d="M46.7307 49.7601H57.1153C57.5934 49.7601 57.9807 49.3725 57.9807 48.8947C57.9807 48.4166 57.5934 48.0293 57.1153 48.0293H46.7307C46.2527 48.0293 45.8654 48.4166 45.8654 48.8947C45.8654 49.3725 46.2527 49.7601 46.7307 49.7601Z" fill="#FB3D54" fill-opacity="0.6"/>
</svg>
