<svg width="78" height="82" viewBox="0 0 78 82" fill="none" xmlns="http://www.w3.org/2000/svg">
<path d="M68.3654 47.5962H26.8269C26.3423 47.5962 25.9615 47.977 25.9615 48.4616V55.3846C25.9615 55.8693 26.3423 56.25 26.8269 56.25H68.3654C68.85 56.25 69.2308 55.8693 69.2308 55.3846V48.4616C69.2308 47.977 68.85 47.5962 68.3654 47.5962ZM67.5 54.5193H27.6923V49.327H31.1538V51.0577C31.1538 51.5423 31.5346 51.9231 32.0192 51.9231C32.5038 51.9231 32.8846 51.5423 32.8846 51.0577V49.327H36.3461V51.0577C36.3461 51.5423 36.7269 51.9231 37.2115 51.9231C37.6961 51.9231 38.0769 51.5423 38.0769 51.0577V49.327H41.5384V51.0577C41.5384 51.5423 41.9192 51.9231 42.4038 51.9231C42.8884 51.9231 43.2692 51.5423 43.2692 51.0577V49.327H46.7307V51.0577C46.7307 51.5423 47.1115 51.9231 47.5961 51.9231C48.0807 51.9231 48.4615 51.5423 48.4615 51.0577V49.327H51.9231V51.0577C51.9231 51.5423 52.3038 51.9231 52.7884 51.9231C53.2731 51.9231 53.6538 51.5423 53.6538 51.0577V49.327H57.1154V51.0577C57.1154 51.5423 57.4961 51.9231 57.9807 51.9231C58.4654 51.9231 58.8461 51.5423 58.8461 51.0577V49.327H62.3077V51.0577C62.3077 51.5423 62.6884 51.9231 63.1731 51.9231C63.6577 51.9231 64.0384 51.5423 64.0384 51.0577V49.327H67.5V54.5193Z" fill="#FB3D54" fill-opacity="0.6"/>
<path d="M39.1154 65.9425C40.0712 65.9425 40.8461 65.1676 40.8461 64.2117C40.8461 63.2558 40.0712 62.481 39.1154 62.481C38.1595 62.481 37.3846 63.2558 37.3846 64.2117C37.3846 65.1676 38.1595 65.9425 39.1154 65.9425Z" fill="#FB3D54" fill-opacity="0.6"/>
<path d="M75.7211 6.92306C76.438 6.92306 77.0192 6.34189 77.0192 5.62498C77.0192 4.90807 76.438 4.3269 75.7211 4.3269C75.0042 4.3269 74.423 4.90807 74.423 5.62498C74.423 6.34189 75.0042 6.92306 75.7211 6.92306Z" fill="#FB3D54" fill-opacity="0.6"/>
<path d="M21.2019 12.1154C21.9188 12.1154 22.5 11.5343 22.5 10.8174C22.5 10.1005 21.9188 9.51929 21.2019 9.51929C20.485 9.51929 19.9038 10.1005 19.9038 10.8174C19.9038 11.5343 20.485 12.1154 21.2019 12.1154Z" fill="#FB3D54" fill-opacity="0.6"/>
<path d="M2.16345 10.3847C2.88036 10.3847 3.46153 9.80356 3.46153 9.08665C3.46153 8.36974 2.88036 7.78857 2.16345 7.78857C1.44654 7.78857 0.865372 8.36974 0.865372 9.08665C0.865372 9.80356 1.44654 10.3847 2.16345 10.3847Z" fill="#FB3D54" fill-opacity="0.6"/>
<path d="M13.8461 9.51932C16.2346 9.51932 18.1731 7.58086 18.1731 5.1924C18.1731 2.80394 16.2346 0.865479 13.8461 0.865479C11.4577 0.865479 9.51921 2.80394 9.51921 5.1924C9.51921 7.58086 11.4577 9.51932 13.8461 9.51932ZM13.8461 2.59625C15.2827 2.59625 16.4423 3.75586 16.4423 5.1924C16.4423 6.62894 15.2827 7.78855 13.8461 7.78855C12.4096 7.78855 11.25 6.62894 11.25 5.1924C11.25 3.75586 12.4096 2.59625 13.8461 2.59625Z" fill="#FB3D54" fill-opacity="0.6"/>
<path d="M64.0385 11.25C65.9423 11.25 67.5 9.69229 67.5 7.78844C67.5 5.8846 65.9423 4.3269 64.0385 4.3269C62.1347 4.3269 60.577 5.8846 60.577 7.78844C60.577 9.69229 62.1347 11.25 64.0385 11.25ZM64.0385 6.05767C64.9904 6.05767 65.7693 6.83652 65.7693 7.78844C65.7693 8.74037 64.9904 9.51921 64.0385 9.51921C63.0866 9.51921 62.3077 8.74037 62.3077 7.78844C62.3077 6.83652 63.0866 6.05767 64.0385 6.05767Z" fill="#FB3D54" fill-opacity="0.6"/>
<path d="M71.7404 12.9808H56.3365C56.7346 12.1846 56.9423 11.3019 56.925 10.3846C56.8904 7.70192 53.5154 2.80384 51.9577 0.398075C51.75 0.0692287 51.3519 -0.0692287 50.9885 0.0346175C50.625 0.138464 50.3654 0.484615 50.3654 0.865385C50.3827 2.57885 49.0673 4.5 47.9077 6.19615C46.8 7.82307 45.8308 9.225 45.8654 10.5404C45.8827 12.0462 46.5231 13.4308 47.5442 14.4173L48.0635 18.1558H44.1346V0.865385C44.1346 0.380769 43.7538 0 43.2692 0H37.2115C36.7269 0 36.3462 0.380769 36.3462 0.865385V18.1731H34.2692V9.34615C34.2692 9.225 34.2519 9.10385 34.2 9C34.1135 8.80962 30.5654 0.536538 30.5654 0.519231C30.2712 -0.173077 29.2673 -0.173077 28.9731 0.519231L25.3385 9C25.3212 9.05192 25.2692 9.15577 25.2692 9.34615V12.9808H6.14423C2.75192 12.9808 0 15.7327 0 19.125V63.9519C0 67.3442 2.75192 70.0962 6.14423 70.0962H29.5962V79.6154H27.1731C26.6885 79.6154 26.3077 79.9962 26.3077 80.4808C26.3077 80.9654 26.6885 81.3462 27.1731 81.3462H34.7885H51.0577C51.5423 81.3462 51.9231 80.9654 51.9231 80.4808C51.9231 79.9962 51.5423 79.6154 51.0577 79.6154H48.6346V70.0962H71.7404C75.1327 70.0962 77.8846 67.3442 77.8846 63.9519V19.125C77.8846 15.7327 75.1327 12.9808 71.7404 12.9808ZM51.6635 3.13269C53.1519 5.46923 55.1596 8.775 55.1942 10.4192C55.2288 12.5135 53.55 14.2442 51.4558 14.2788H51.4038C49.3442 14.2788 47.6308 12.6 47.5962 10.5404C47.5788 9.06923 50.5904 6.05769 51.6635 3.13269ZM49.4654 15.6635C50.7981 16.1654 52.2346 16.1135 53.4808 15.6115L53.2038 18.1904H49.8288L49.4654 15.6635ZM6.92308 51.0577H17.3077C17.7923 51.0577 18.1731 50.6769 18.1731 50.1923C18.1731 49.7077 17.7923 49.3269 17.3077 49.3269H12.5135L16.7885 38.1981C17.0135 38.2154 17.1692 38.2154 17.3942 38.1981L22.1365 50.5038C22.3096 50.9538 22.8115 51.1788 23.2615 51.0058C23.7115 50.8327 23.9365 50.3308 23.7635 49.8808L19.0904 37.7308C20.5096 37.0038 21.4788 35.5327 21.4788 33.8365C21.4788 31.725 19.9731 29.9596 17.9654 29.5442V26.8269C17.9654 26.3423 17.5846 25.9615 17.1 25.9615C16.6154 25.9615 16.2346 26.3423 16.2346 26.8269V29.5442C14.2442 29.9423 12.7212 31.7077 12.7212 33.8365C12.7212 35.5327 13.6904 37.0038 15.1096 37.7308L10.6442 49.3269H6.92308V19.9038H21.0808C20.6654 20.5269 20.4231 21.2712 20.4231 22.0673C20.4231 24.2135 22.1712 25.9615 24.3173 25.9615H57.0288C59.175 25.9615 60.9231 24.2135 60.9231 22.0673C60.9231 21.2712 60.6808 20.5269 60.2654 19.9038H70.9615V57.9808H6.92308V51.0577ZM14.4519 33.8365C14.4519 32.3827 15.6288 31.1885 17.1 31.1885C18.5712 31.1885 19.7481 32.3654 19.7481 33.8365C19.7481 34.8058 19.2288 35.6365 18.45 36.1038C17.8615 34.5808 17.9135 34.7019 17.8615 34.5981C17.4981 33.9404 16.5635 34.0269 16.3038 34.7019L15.7673 36.1038C14.9712 35.6365 14.4519 34.8058 14.4519 33.8365ZM59.1923 22.0673C59.1923 23.2615 58.2231 24.2308 57.0288 24.2308H24.3173C23.1231 24.2308 22.1538 23.2615 22.1538 22.0673C22.1538 20.8731 23.1231 19.9038 24.3173 19.9038H57.0288C58.2231 19.9038 59.1923 20.8731 59.1923 22.0673ZM27 10.2115H28.9038V18.1731H27V10.2115ZM38.0769 1.73077H42.4038V2.59615H40.6731C40.1885 2.59615 39.8077 2.97692 39.8077 3.46154C39.8077 3.94615 40.1885 4.32692 40.6731 4.32692H42.4038V5.19231H40.6731C40.1885 5.19231 39.8077 5.57308 39.8077 6.05769C39.8077 6.54231 40.1885 6.92308 40.6731 6.92308H42.4038V7.78846H40.6731C40.1885 7.78846 39.8077 8.16923 39.8077 8.65385C39.8077 9.13846 40.1885 9.51923 40.6731 9.51923H42.4038V10.3846H40.6731C40.1885 10.3846 39.8077 10.7654 39.8077 11.25C39.8077 11.7346 40.1885 12.1154 40.6731 12.1154H42.4038V12.9808H40.6731C40.1885 12.9808 39.8077 13.3615 39.8077 13.8462C39.8077 14.3308 40.1885 14.7115 40.6731 14.7115H42.4038V15.5769H40.6731C40.1885 15.5769 39.8077 15.9577 39.8077 16.4423C39.8077 16.9269 40.1885 17.3077 40.6731 17.3077H42.4038V18.1731H38.0769V1.73077ZM30.6346 18.1731V10.2115H32.5385V18.1731H30.6346ZM29.7692 3.06346L32.0885 8.48077H27.45L29.7692 3.06346ZM31.3269 70.2692H33.9231V79.6154H31.3269V70.2692ZM35.6538 79.6154V70.2692H42.5769V79.6154H35.6538ZM44.3077 79.6154V70.2692H46.9038V79.6154H44.3077ZM76.1538 63.9519C76.1538 66.3923 74.1808 68.3654 71.7404 68.3654H6.14423C3.70385 68.3654 1.73077 66.3923 1.73077 63.9519V19.125C1.73077 16.6846 3.70385 14.7115 6.14423 14.7115H25.2692V18.1731C22.3788 18.1731 8.18654 18.1731 6.05769 18.1731C5.57308 18.1731 5.19231 18.5538 5.19231 19.0385V58.8462C5.19231 59.3308 5.57308 59.7115 6.05769 59.7115H71.8269C72.3115 59.7115 72.6923 59.3308 72.6923 58.8462V19.0385C72.6923 18.5538 72.3115 18.1731 71.8269 18.1731C67.3442 18.1731 59.1058 18.1731 54.9346 18.1731L55.3154 14.7115H71.7404C74.1808 14.7115 76.1538 16.6846 76.1538 19.125V63.9519Z" fill="#FB3D54" fill-opacity="0.6"/>
<path d="M36.3461 38.077H38.9423C39.4269 38.077 39.8077 37.6962 39.8077 37.2116C39.8077 36.727 39.4269 36.3462 38.9423 36.3462H36.3461C35.8615 36.3462 35.4807 36.727 35.4807 37.2116C35.4807 37.6962 35.8615 38.077 36.3461 38.077Z" fill="#FB3D54" fill-opacity="0.6"/>
<path d="M49.3269 37.2116C49.3269 36.727 48.9461 36.3462 48.4615 36.3462H41.5384C41.0538 36.3462 40.673 36.727 40.673 37.2116C40.673 37.6962 41.0538 38.077 41.5384 38.077H48.4615C48.9461 38.077 49.3269 37.6962 49.3269 37.2116Z" fill="#FB3D54" fill-opacity="0.6"/>
<path d="M36.3461 41.5384H39.8077C40.2923 41.5384 40.6731 41.1576 40.6731 40.673C40.6731 40.1884 40.2923 39.8076 39.8077 39.8076H36.3461C35.8615 39.8076 35.4807 40.1884 35.4807 40.673C35.4807 41.1576 35.8615 41.5384 36.3461 41.5384Z" fill="#FB3D54" fill-opacity="0.6"/>
<path d="M51.0577 40.673C51.0577 40.1884 50.6769 39.8076 50.1923 39.8076H42.4038C41.9192 39.8076 41.5384 40.1884 41.5384 40.673C41.5384 41.1576 41.9192 41.5384 42.4038 41.5384H50.1923C50.6769 41.5384 51.0577 41.1576 51.0577 40.673Z" fill="#FB3D54" fill-opacity="0.6"/>
<path d="M36.3461 45H40.673C41.1577 45 41.5384 44.6193 41.5384 44.1347C41.5384 43.6501 41.1577 43.2693 40.673 43.2693H36.3461C35.8615 43.2693 35.4807 43.6501 35.4807 44.1347C35.4807 44.6193 35.8615 45 36.3461 45Z" fill="#FB3D54" fill-opacity="0.6"/>
<path d="M43.2692 43.2693C42.7846 43.2693 42.4038 43.6501 42.4038 44.1347C42.4038 44.6193 42.7846 45 43.2692 45H47.5961C48.0808 45 48.4615 44.6193 48.4615 44.1347C48.4615 43.6501 48.0808 43.2693 47.5961 43.2693H43.2692Z" fill="#FB3D54" fill-opacity="0.6"/>
<path d="M54.5192 41.5384C55.0038 41.5384 55.3846 41.1576 55.3846 40.673C55.3846 40.1884 55.0038 39.8076 54.5192 39.8076H52.7884C52.3038 39.8076 51.923 40.1884 51.923 40.673C51.923 41.1576 52.3038 41.5384 52.7884 41.5384H54.5192Z" fill="#FB3D54" fill-opacity="0.6"/>
<path d="M51.0577 38.077H55.3846C55.8692 38.077 56.25 37.6962 56.25 37.2116C56.25 36.727 55.8692 36.3462 55.3846 36.3462H51.0577C50.5731 36.3462 50.1923 36.727 50.1923 37.2116C50.1923 37.6962 50.5731 38.077 51.0577 38.077Z" fill="#FB3D54" fill-opacity="0.6"/>
<path d="M57.9807 38.077H59.7115C60.1961 38.077 60.5769 37.6962 60.5769 37.2116C60.5769 36.727 60.1961 36.3462 59.7115 36.3462H57.9807C57.4961 36.3462 57.1154 36.727 57.1154 37.2116C57.1154 37.6962 57.4961 38.077 57.9807 38.077Z" fill="#FB3D54" fill-opacity="0.6"/>
<path d="M50.1923 45H51.9231C52.4077 45 52.7885 44.6193 52.7885 44.1347C52.7885 43.6501 52.4077 43.2693 51.9231 43.2693H50.1923C49.7077 43.2693 49.327 43.6501 49.327 44.1347C49.327 44.6193 49.7077 45 50.1923 45Z" fill="#FB3D54" fill-opacity="0.6"/>
<path d="M36.3461 31.1539H40.673C41.1577 31.1539 41.5384 30.7731 41.5384 30.2885C41.5384 29.8039 41.1577 29.4231 40.673 29.4231H36.3461C35.8615 29.4231 35.4807 29.8039 35.4807 30.2885C35.4807 30.7731 35.8615 31.1539 36.3461 31.1539Z" fill="#FB3D54" fill-opacity="0.6"/>
<path d="M43.2692 31.1539H47.5961C48.0808 31.1539 48.4615 30.7731 48.4615 30.2885C48.4615 29.8039 48.0808 29.4231 47.5961 29.4231H43.2692C42.7846 29.4231 42.4038 29.8039 42.4038 30.2885C42.4038 30.7731 42.7846 31.1539 43.2692 31.1539Z" fill="#FB3D54" fill-opacity="0.6"/>
<path d="M36.3461 34.6155H45C45.4846 34.6155 45.8653 34.2348 45.8653 33.7501C45.8653 33.2655 45.4846 32.8848 45 32.8848H36.3461C35.8615 32.8848 35.4807 33.2655 35.4807 33.7501C35.4807 34.2348 35.8615 34.6155 36.3461 34.6155Z" fill="#FB3D54" fill-opacity="0.6"/>
<path d="M46.7307 33.7501C46.7307 34.2348 47.1115 34.6155 47.5961 34.6155H49.3269C49.8115 34.6155 50.1923 34.2348 50.1923 33.7501C50.1923 33.2655 49.8115 32.8848 49.3269 32.8848H47.5961C47.1115 32.8848 46.7307 33.2655 46.7307 33.7501Z" fill="#FB3D54" fill-opacity="0.6"/>
<path d="M51.9231 34.6155H56.25C56.7346 34.6155 57.1154 34.2348 57.1154 33.7501C57.1154 33.2655 56.7346 32.8848 56.25 32.8848H51.9231C51.4384 32.8848 51.0577 33.2655 51.0577 33.7501C51.0577 34.2348 51.4384 34.6155 51.9231 34.6155Z" fill="#FB3D54" fill-opacity="0.6"/>
<path d="M31.1539 45H32.8846C33.3693 45 33.75 44.6193 33.75 44.1347C33.75 43.6501 33.3693 43.2693 32.8846 43.2693H31.1539C30.6693 43.2693 30.2885 43.6501 30.2885 44.1347C30.2885 44.6193 30.6693 45 31.1539 45Z" fill="#FB3D54" fill-opacity="0.6"/>
<path d="M31.1539 41.5384H32.8846C33.3693 41.5384 33.75 41.1576 33.75 40.673C33.75 40.1884 33.3693 39.8076 32.8846 39.8076H31.1539C30.6693 39.8076 30.2885 40.1884 30.2885 40.673C30.2885 41.1576 30.6693 41.5384 31.1539 41.5384Z" fill="#FB3D54" fill-opacity="0.6"/>
<path d="M31.1539 38.077H32.8846C33.3693 38.077 33.75 37.6962 33.75 37.2116C33.75 36.727 33.3693 36.3462 32.8846 36.3462H31.1539C30.6693 36.3462 30.2885 36.727 30.2885 37.2116C30.2885 37.6962 30.6693 38.077 31.1539 38.077Z" fill="#FB3D54" fill-opacity="0.6"/>
<path d="M31.1539 34.6155H32.8846C33.3693 34.6155 33.75 34.2348 33.75 33.7501C33.75 33.2655 33.3693 32.8848 32.8846 32.8848H31.1539C30.6693 32.8848 30.2885 33.2655 30.2885 33.7501C30.2885 34.2348 30.6693 34.6155 31.1539 34.6155Z" fill="#FB3D54" fill-opacity="0.6"/>
<path d="M31.1539 31.1539H32.8846C33.3693 31.1539 33.75 30.7731 33.75 30.2885C33.75 29.8039 33.3693 29.4231 32.8846 29.4231H31.1539C30.6693 29.4231 30.2885 29.8039 30.2885 30.2885C30.2885 30.7731 30.6693 31.1539 31.1539 31.1539Z" fill="#FB3D54" fill-opacity="0.6"/>
</svg>
