<svg width="90" height="90" viewBox="0 0 90 90" fill="none" xmlns="http://www.w3.org/2000/svg">
<path d="M65.4115 54.7648C65.074 54.4273 64.5257 54.427 64.1878 54.7648L62.8248 56.1278L60.535 53.838C68.3489 43.1881 67.2478 28.295 57.8414 18.8888C52.7547 13.802 45.9916 11.0006 38.7978 11.0006C23.9133 11.0006 11.866 23.0459 11.866 37.9326C11.866 52.8167 23.9106 64.8641 38.7971 64.8641C44.505 64.8641 50.1231 63.0242 54.7032 59.6695L56.9935 61.9597L55.6306 63.3226C55.2917 63.6615 55.2936 64.2098 55.6306 64.5465L70.0851 79.001C72.621 81.5373 76.7269 81.5378 79.2637 79.001L79.8665 78.3983C82.3969 75.8676 82.3969 71.7501 79.8663 69.2195L65.4115 54.7648ZM55.3941 57.9131C55.0854 57.6043 54.5952 57.5742 54.2506 57.8422C49.8666 61.2542 44.3781 63.1331 38.7967 63.1331C24.8696 63.1331 13.5964 51.8623 13.5964 37.9324C13.5964 24.0044 24.8677 12.7312 38.7974 12.7312C45.5289 12.7312 51.8575 15.3526 56.6173 20.1124C65.5889 29.084 66.4873 43.3883 58.707 53.3854C58.4389 53.7298 58.4694 54.2202 58.7781 54.5288L61.6007 57.3515L58.2165 60.7356L55.3941 57.9131ZM78.6422 77.1743L78.0393 77.777C76.1793 79.637 73.1686 79.6374 71.308 77.777L57.4655 63.9346L64.7993 56.6008L78.642 70.4434C80.4979 72.2989 80.4979 75.3184 78.6422 77.1743Z" fill="#FB3D54" fill-opacity="0.6"/>
<path d="M72.4162 71.5511C71.8132 72.1541 71.4809 72.9558 71.4809 73.8087C71.4809 75.5729 72.9088 77.0013 74.6737 77.0013C76.4384 77.0013 77.8664 75.5736 77.8664 73.8087C77.8664 72.9559 77.5343 72.1541 76.9315 71.5512C75.6841 70.3035 73.6641 70.3027 72.4162 71.5511ZM74.6737 75.2707C73.8659 75.2707 73.2117 74.6171 73.2117 73.8089C73.2117 73.4184 73.3638 73.0513 73.6402 72.7751C74.2114 72.2036 75.1361 72.2036 75.7076 72.7751C75.9837 73.0513 76.1358 73.4184 76.1358 73.8089C76.1357 74.6168 75.482 75.2707 74.6737 75.2707Z" fill="#FB3D54" fill-opacity="0.6"/>
<path d="M64.846 60.6893L61.5545 63.9809C61.0065 64.5288 61.4037 65.4583 62.1663 65.4583C62.3876 65.4583 62.6094 65.3738 62.7781 65.2047L66.0697 61.9131C66.4077 61.5753 66.4077 61.0273 66.0697 60.6893C65.732 60.3515 65.1837 60.3515 64.846 60.6893Z" fill="#FB3D54" fill-opacity="0.6"/>
<path d="M34.6154 73.5582C35.0932 73.5582 35.4808 73.1706 35.4808 72.6928C35.4808 72.2147 35.0932 71.8274 34.6154 71.8274H15.5769C15.099 71.8274 14.7115 72.2147 14.7115 72.6928C14.7115 73.1706 15.099 73.5582 15.5769 73.5582H34.6154Z" fill="#FB3D54" fill-opacity="0.6"/>
<path d="M20.7692 76.1543C20.7692 76.6322 21.1567 77.0197 21.6346 77.0197H53.6538C54.1319 77.0197 54.5192 76.6322 54.5192 76.1543C54.5192 75.6763 54.1319 75.2889 53.6538 75.2889H21.6346C21.1567 75.2889 20.7692 75.6763 20.7692 76.1543Z" fill="#FB3D54" fill-opacity="0.6"/>
<path d="M62.3077 78.7504H16.4423C15.9644 78.7504 15.5769 79.1377 15.5769 79.6157C15.5769 80.0936 15.9644 80.4811 16.4423 80.4811H62.3077C62.7857 80.4811 63.1731 80.0936 63.1731 79.6157C63.1731 79.1377 62.7857 78.7504 62.3077 78.7504Z" fill="#FB3D54" fill-opacity="0.6"/>
<path d="M75.2885 25.9618C79.1058 25.9618 82.2115 22.8561 82.2115 19.0387C82.2115 15.2213 79.1058 12.1156 75.2885 12.1156C71.4711 12.1156 68.3654 15.2213 68.3654 19.0387C68.3654 22.8562 71.4711 25.9618 75.2885 25.9618ZM75.2885 13.8465C78.1515 13.8465 80.4808 16.1758 80.4808 19.0389C80.4808 21.9019 78.1515 24.2312 75.2885 24.2312C72.4254 24.2312 70.0961 21.9019 70.0961 19.0389C70.0961 16.1758 72.4254 13.8465 75.2885 13.8465Z" fill="#FB3D54" fill-opacity="0.6"/>
<path d="M57.5481 13.8462C58.265 13.8462 58.8462 13.265 58.8462 12.5481C58.8462 11.8312 58.265 11.25 57.5481 11.25C56.8312 11.25 56.25 11.8312 56.25 12.5481C56.25 13.265 56.8312 13.8462 57.5481 13.8462Z" fill="#FB3D54" fill-opacity="0.6"/>
<path d="M78.3173 35.4808C79.0342 35.4808 79.6154 34.8996 79.6154 34.1827C79.6154 33.4658 79.0342 32.8846 78.3173 32.8846C77.6004 32.8846 77.0192 33.4658 77.0192 34.1827C77.0192 34.8996 77.6004 35.4808 78.3173 35.4808Z" fill="#FB3D54" fill-opacity="0.6"/>
<path d="M75.7211 51.0578C76.4381 51.0578 77.0192 50.4767 77.0192 49.7597C77.0192 49.0428 76.4381 48.4617 75.7211 48.4617C75.0042 48.4617 74.4231 49.0428 74.4231 49.7597C74.4231 50.4767 75.0042 51.0578 75.7211 51.0578Z" fill="#FB3D54" fill-opacity="0.6"/>
<path d="M10.8173 80.4808C11.5342 80.4808 12.1154 79.8996 12.1154 79.1827C12.1154 78.4658 11.5342 77.8846 10.8173 77.8846C10.1004 77.8846 9.51924 78.4658 9.51924 79.1827C9.51924 79.8996 10.1004 80.4808 10.8173 80.4808Z" fill="#FB3D54" fill-opacity="0.6"/>
<path d="M17.7404 12.1154C18.4573 12.1154 19.0385 11.5343 19.0385 10.8174C19.0385 10.1005 18.4573 9.51929 17.7404 9.51929C17.0235 9.51929 16.4423 10.1005 16.4423 10.8174C16.4423 11.5343 17.0235 12.1154 17.7404 12.1154Z" fill="#FB3D54" fill-opacity="0.6"/>
<path d="M9.95192 31.1539C10.6688 31.1539 11.25 30.5727 11.25 29.8558C11.25 29.1389 10.6688 28.5577 9.95192 28.5577C9.23501 28.5577 8.65384 29.1389 8.65384 29.8558C8.65384 30.5727 9.23501 31.1539 9.95192 31.1539Z" fill="#FB3D54" fill-opacity="0.6"/>
<path d="M48.8942 70.9615C49.6111 70.9615 50.1923 70.3803 50.1923 69.6634C50.1923 68.9465 49.6111 68.3654 48.8942 68.3654C48.1773 68.3654 47.5961 68.9465 47.5961 69.6634C47.5961 70.3803 48.1773 70.9615 48.8942 70.9615Z" fill="#FB3D54" fill-opacity="0.6"/>
<path d="M17.3077 61.4426C17.3077 59.0568 15.3666 57.1157 12.9808 57.1157C10.5949 57.1157 8.65384 59.0568 8.65384 61.4426C8.65384 63.8285 10.5949 65.7696 12.9808 65.7696C15.3666 65.7696 17.3077 63.8285 17.3077 61.4426ZM12.9808 64.0388C11.5492 64.0388 10.3846 62.874 10.3846 61.4426C10.3846 60.011 11.5492 58.8465 12.9808 58.8465C14.4123 58.8465 15.5769 60.011 15.5769 61.4426C15.5769 62.874 14.4123 64.0388 12.9808 64.0388Z" fill="#FB3D54" fill-opacity="0.6"/>
<path d="M38.7976 17.8362C27.7034 17.8362 18.7013 26.8668 18.7013 37.9325C18.7013 43.1849 20.7277 47.9723 24.0385 51.5564C24.0798 51.6149 24.1299 51.6663 24.1842 51.7129C32.1234 60.1273 45.4581 60.1409 53.4102 51.7134C53.4652 51.6663 53.5157 51.6144 53.5576 51.555C56.8677 47.9711 58.8936 43.1843 58.8936 37.9325C58.8937 26.8725 49.8972 17.8362 38.7976 17.8362ZM51.0127 24.231H26.5822C33.5513 18.0112 44.0437 18.0113 51.0127 24.231ZM24.8807 25.9618H52.7142C58.7293 32.9449 58.6475 43.3038 52.4589 50.1927H25.136C18.9523 43.3093 18.861 32.9503 24.8807 25.9618ZM26.9145 51.9235H50.6804C43.8229 57.7565 33.7744 57.7584 26.9145 51.9235Z" fill="#FB3D54" fill-opacity="0.6"/>
<path d="M25.8702 40.1949L26.8269 38.2816L27.7837 40.1951C28.1018 40.8315 29.0131 40.8324 29.3317 40.1951L31.0625 36.7336C31.2762 36.3061 31.103 35.7863 30.6755 35.5726C30.248 35.3588 29.728 35.5319 29.5145 35.9596L28.5577 37.8729C27.5159 35.7941 27.5776 35.8786 27.4363 35.7375C27.3673 35.6684 27.379 35.6802 27.3133 35.6354C27.2863 35.6169 27.2596 35.5983 27.2307 35.5831C27.2246 35.58 27.2198 35.5755 27.2137 35.5724C27.1971 35.5641 27.1797 35.5601 27.1627 35.553C26.9623 35.4684 26.7582 35.4661 26.5791 35.5194C26.5486 35.5286 26.5197 35.5409 26.4905 35.5532C26.4737 35.5603 26.4562 35.5641 26.4397 35.5724C26.4211 35.5817 26.307 35.6551 26.2795 35.6778C26.2565 35.6966 26.1753 35.7783 26.1587 35.7986C26.0676 35.9101 26.0621 35.9452 25.096 37.8729L24.1392 35.9594C23.9255 35.5317 23.4052 35.3585 22.9782 35.5724C22.5507 35.7861 22.3775 36.3059 22.5912 36.7334L24.322 40.1949C24.4686 40.4881 24.7682 40.6733 25.096 40.6733C25.4238 40.6733 25.7236 40.4883 25.8702 40.1949Z" fill="#FB3D54" fill-opacity="0.6"/>
<path d="M34.7068 40.1949C34.8534 40.4881 35.153 40.6733 35.4808 40.6733C35.8086 40.6733 36.1082 40.4881 36.2548 40.1949L37.2115 38.2816L38.1683 40.1951C38.4864 40.8315 39.3977 40.8324 39.7163 40.1951L41.4471 36.7336C41.6608 36.3061 41.4876 35.7863 41.0601 35.5726C40.6324 35.3588 40.1126 35.5319 39.8991 35.9596L38.9423 37.8729C37.8966 35.7861 37.9617 35.878 37.8211 35.7375C37.7524 35.6686 37.7626 35.6792 37.6979 35.6354C37.6709 35.617 37.6442 35.5983 37.6155 35.5833C37.6094 35.58 37.6046 35.5755 37.5984 35.5724C37.5817 35.5641 37.5641 35.5601 37.5473 35.553C37.3458 35.468 37.1409 35.4665 36.9639 35.5194C36.9332 35.5286 36.9041 35.5409 36.8749 35.5533C36.8583 35.5604 36.841 35.5642 36.8245 35.5726C36.8185 35.5757 36.8138 35.58 36.8079 35.5831C36.7785 35.5987 36.7511 35.6176 36.7235 35.6364C36.6598 35.6804 36.6712 35.6679 36.6009 35.7387C36.5343 35.8055 36.5466 35.7924 36.4997 35.8612C36.4289 35.9653 36.5146 35.81 35.4808 37.8729L34.524 35.9594C34.3101 35.5317 33.7902 35.3585 33.363 35.5724C32.9355 35.7861 32.7622 36.3059 32.976 36.7334L34.7068 40.1949Z" fill="#FB3D54" fill-opacity="0.6"/>
<path d="M45.0914 40.195C45.238 40.4882 45.5376 40.6734 45.8654 40.6734C46.1932 40.6734 46.4928 40.4882 46.6394 40.195L47.5962 38.2815L48.5529 40.1952C48.8709 40.8316 49.7825 40.8326 50.1008 40.1952L51.8315 36.7336C52.0453 36.3061 51.872 35.7864 51.4447 35.5726C51.0174 35.3589 50.4975 35.532 50.2837 35.9596L49.3269 37.873C48.2853 35.7943 48.3466 35.8774 48.2044 35.7362C48.1377 35.6695 48.1498 35.681 48.0811 35.6344C48.0548 35.6164 48.0288 35.5984 48.001 35.5837C47.9948 35.5804 47.9897 35.5757 47.9832 35.5726C47.9658 35.564 47.9478 35.5598 47.9302 35.5525C47.9018 35.5406 47.8738 35.5287 47.8442 35.5198C47.8078 35.5089 47.7189 35.4915 47.6804 35.4875C47.6398 35.4835 47.5522 35.4837 47.5127 35.4873C47.4719 35.4913 47.3822 35.5095 47.3487 35.5195C47.3185 35.5285 47.2896 35.5406 47.2606 35.5529C47.2434 35.5602 47.2259 35.564 47.209 35.5725C47.2028 35.5756 47.1977 35.5801 47.1917 35.5835C47.1631 35.5986 47.1368 35.6168 47.11 35.6351C47.0437 35.6805 47.0558 35.6683 46.9869 35.737C46.9186 35.8058 46.9314 35.7916 46.8852 35.8598C46.8132 35.965 46.8961 35.816 45.865 37.8732L44.9083 35.9596C44.6947 35.532 44.1744 35.3587 43.7474 35.5726C43.3199 35.7864 43.1467 36.3061 43.3604 36.7336L45.0914 40.195Z" fill="#FB3D54" fill-opacity="0.6"/>
<path d="M52.7885 38.9424H54.5192V40.6731H52.7885V38.9424Z" fill="#FB3D54" fill-opacity="0.6"/>
</svg>
