<svg width="90" height="90" viewBox="0 0 90 90" fill="none" xmlns="http://www.w3.org/2000/svg">
<path d="M35.9134 63.1549H33.1563L32.3043 60.5328C32.1885 60.1761 31.8562 59.9348 31.4813 59.9348C31.1064 59.9348 30.7741 60.1763 30.6583 60.5328L29.8064 63.1549H27.0493C26.6744 63.1549 26.3421 63.3964 26.2263 63.7529C26.1105 64.1094 26.2374 64.4999 26.5406 64.7204L28.7711 66.3411L27.9192 68.9632C27.8034 69.3197 27.9303 69.7102 28.2335 69.9307C28.5369 70.151 28.9476 70.151 29.2508 69.9307L31.4813 68.3102L33.7119 69.9307C34.0151 70.151 34.4258 70.151 34.7292 69.9307C35.0326 69.7104 35.1595 69.3197 35.0436 68.9632L34.1915 66.3411L36.4221 64.7204C36.7253 64.5001 36.8524 64.1094 36.7364 63.7529C36.6206 63.3962 36.2883 63.1549 35.9134 63.1549ZM32.6655 65.3104C32.3622 65.5307 32.2352 65.9214 32.3512 66.2779L32.5744 66.965L31.99 66.5405C31.6865 66.3201 31.2758 66.3201 30.9726 66.5405L30.3881 66.965L30.6114 66.2779C30.7272 65.9214 30.6003 65.5309 30.2971 65.3104L29.7126 64.8857H30.4352C30.8101 64.8857 31.1424 64.6442 31.2582 64.2877L31.4815 63.6004L31.7047 64.2877C31.8205 64.6444 32.1528 64.8857 32.5277 64.8857H33.2501L32.6655 65.3104Z" fill="#FB3D54" fill-opacity="0.6"/>
<path d="M62.0854 63.1549H59.3283L58.4761 60.5328C58.3603 60.1761 58.028 59.9348 57.6531 59.9348C57.2782 59.9348 56.9459 60.1763 56.8301 60.5328L55.9781 63.1549H53.2211C52.8462 63.1549 52.5139 63.3964 52.3981 63.7529C52.2822 64.1094 52.409 64.4999 52.7123 64.7204L54.9429 66.3411L54.091 68.9632C53.975 69.3197 54.1019 69.7102 54.4053 69.9307C54.7085 70.151 55.1191 70.151 55.4227 69.9307L57.6531 68.3102L59.8839 69.9307C60.0355 70.0409 60.2139 70.096 60.3924 70.096C60.976 70.096 61.3981 69.525 61.2154 68.9632L60.3635 66.3411L62.5941 64.7204C62.8973 64.5001 63.0242 64.1094 62.9082 63.7529C62.7926 63.3962 62.4603 63.1549 62.0854 63.1549ZM58.8375 65.3104C58.5342 65.5307 58.4074 65.9214 58.5233 66.2779L58.7466 66.9652L58.1618 66.5405C57.8585 66.3201 57.448 66.3201 57.1444 66.5405L56.5601 66.965L56.7832 66.2779C56.8992 65.9214 56.7723 65.5309 56.4691 65.3104L55.8844 64.8857H56.607C56.9819 64.8857 57.3142 64.6442 57.43 64.2877L57.6533 63.6004L57.8767 64.2877C57.9925 64.6444 58.3248 64.8857 58.6997 64.8857H59.4223L58.8375 65.3104Z" fill="#FB3D54" fill-opacity="0.6"/>
<path d="M48.6862 63.6208L52.7888 60.6399C53.0921 60.4196 53.2189 60.0289 53.103 59.6724C52.9872 59.3157 52.6549 59.0744 52.28 59.0744H47.209L45.6418 54.2518C45.526 53.8951 45.1937 53.6538 44.8188 53.6538C44.4439 53.6538 44.1116 53.8952 43.9958 54.2518L42.429 59.0744H37.358C36.9831 59.0744 36.6508 59.3158 36.535 59.6724C36.4192 60.0289 36.5461 60.4194 36.8493 60.6399L40.9519 63.6208L39.3849 68.4434C39.2691 68.7999 39.3959 69.1904 39.6992 69.4109C40.0026 69.6312 40.4131 69.6312 40.7165 69.4109L44.819 66.4303L48.9216 69.4109C49.2248 69.6312 49.6354 69.6312 49.9389 69.4109C50.2422 69.1906 50.369 68.7999 50.2531 68.4434L48.6862 63.6208ZM45.3276 64.6606C45.0244 64.4403 44.6139 64.4403 44.3105 64.6606L41.8542 66.4452L42.7924 63.5576C42.9082 63.2011 42.7813 62.8106 42.4781 62.5901L40.0216 60.8052H43.0579C43.4328 60.8052 43.7651 60.5637 43.8809 60.2072L44.819 57.3196L45.7574 60.2072C45.8732 60.5639 46.2055 60.8052 46.5804 60.8052H49.6168L47.1602 62.5901C46.8569 62.8104 46.7301 63.2011 46.846 63.5576L47.7843 66.4454L45.3276 64.6606Z" fill="#FB3D54" fill-opacity="0.6"/>
<path d="M28.125 25.0963C29.0809 25.0963 29.8558 24.3214 29.8558 23.3655C29.8558 22.4097 29.0809 21.6348 28.125 21.6348C27.1691 21.6348 26.3942 22.4097 26.3942 23.3655C26.3942 24.3214 27.1691 25.0963 28.125 25.0963Z" fill="#FB3D54" fill-opacity="0.6"/>
<path d="M22.9327 25.0963C23.8886 25.0963 24.6635 24.3214 24.6635 23.3655C24.6635 22.4097 23.8886 21.6348 22.9327 21.6348C21.9768 21.6348 21.2019 22.4097 21.2019 23.3655C21.2019 24.3214 21.9768 25.0963 22.9327 25.0963Z" fill="#FB3D54" fill-opacity="0.6"/>
<path d="M17.7404 25.0963C18.6963 25.0963 19.4712 24.3214 19.4712 23.3655C19.4712 22.4097 18.6963 21.6348 17.7404 21.6348C16.7845 21.6348 16.0096 22.4097 16.0096 23.3655C16.0096 24.3214 16.7845 25.0963 17.7404 25.0963Z" fill="#FB3D54" fill-opacity="0.6"/>
<path d="M20.3365 14.7114C22.2452 14.7114 23.7981 13.1586 23.7981 11.2499C23.7981 9.34118 22.2452 7.78833 20.3365 7.78833C18.4278 7.78833 16.875 9.34118 16.875 11.2499C16.875 13.1586 18.4278 14.7114 20.3365 14.7114ZM20.3365 9.5191C21.2909 9.5191 22.0673 10.2955 22.0673 11.2499C22.0673 12.2042 21.2909 12.9806 20.3365 12.9806C19.3822 12.9806 18.6058 12.2042 18.6058 11.2499C18.6058 10.2955 19.3822 9.5191 20.3365 9.5191Z" fill="#FB3D54" fill-opacity="0.6"/>
<path d="M68.3654 13.8461C70.9897 13.8461 73.125 11.7111 73.125 9.08652C73.125 6.46198 70.9897 4.3269 68.3654 4.3269C65.741 4.3269 63.6057 6.46198 63.6057 9.08652C63.6057 11.7111 65.741 13.8461 68.3654 13.8461ZM68.3654 6.05767C70.0354 6.05767 71.3942 7.4165 71.3942 9.08652C71.3942 10.7565 70.0354 12.1154 68.3654 12.1154C66.6953 12.1154 65.3365 10.7565 65.3365 9.08652C65.3365 7.4165 66.6953 6.05767 68.3654 6.05767Z" fill="#FB3D54" fill-opacity="0.6"/>
<path d="M7.78846 19.0385C8.50537 19.0385 9.08654 18.4574 9.08654 17.7405C9.08654 17.0236 8.50537 16.4424 7.78846 16.4424C7.07156 16.4424 6.49039 17.0236 6.49039 17.7405C6.49039 18.4574 7.07156 19.0385 7.78846 19.0385Z" fill="#FB3D54" fill-opacity="0.6"/>
<path d="M32.0192 10.3845C32.7361 10.3845 33.3173 9.80331 33.3173 9.08641C33.3173 8.3695 32.7361 7.78833 32.0192 7.78833C31.3023 7.78833 30.7211 8.3695 30.7211 9.08641C30.7211 9.80331 31.3023 10.3845 32.0192 10.3845Z" fill="#FB3D54" fill-opacity="0.6"/>
<path d="M56.25 12.1152C56.967 12.1152 57.5481 11.534 57.5481 10.8171C57.5481 10.1002 56.967 9.51904 56.25 9.51904C55.5331 9.51904 54.952 10.1002 54.952 10.8171C54.952 11.534 55.5331 12.1152 56.25 12.1152Z" fill="#FB3D54" fill-opacity="0.6"/>
<path d="M40.6731 15.5769C41.39 15.5769 41.9711 14.9957 41.9711 14.2788C41.9711 13.5619 41.39 12.9807 40.6731 12.9807C39.9562 12.9807 39.375 13.5619 39.375 14.2788C39.375 14.9957 39.9562 15.5769 40.6731 15.5769Z" fill="#FB3D54" fill-opacity="0.6"/>
<path d="M36.7788 48.4615C37.2568 48.4615 37.6442 48.074 37.6442 47.5961C37.6442 47.1182 37.2568 46.7307 36.7788 46.7307C36.3009 46.7307 35.9135 47.1182 35.9135 47.5961C35.9135 48.074 36.3009 48.4615 36.7788 48.4615Z" fill="#FB3D54" fill-opacity="0.6"/>
<path d="M82.2115 23.3652C82.9284 23.3652 83.5096 22.784 83.5096 22.0671C83.5096 21.3502 82.9284 20.769 82.2115 20.769C81.4946 20.769 80.9135 21.3502 80.9135 22.0671C80.9135 22.784 81.4946 23.3652 82.2115 23.3652Z" fill="#FB3D54" fill-opacity="0.6"/>
<path d="M73.6442 17.3076H15.4904C12.4365 17.3076 9.95193 19.7921 9.95193 22.8461V80.1345C9.95193 83.1885 12.4365 85.673 15.4904 85.673H73.6442C76.6982 85.673 79.1827 83.1885 79.1827 80.1345V22.8461C79.1827 19.7921 76.6982 17.3076 73.6442 17.3076ZM39.375 24.2307H77.4519V27.6922H39.375V24.2307ZM77.4355 22.4999H39.375V19.0384H73.6442C75.627 19.0384 77.26 20.5622 77.4355 22.4999ZM15.4904 19.0384H37.6442V27.6922H11.6827V22.8461C11.6827 20.7465 13.3908 19.0384 15.4904 19.0384ZM73.6442 83.9422H15.4904C13.3908 83.9422 11.6827 82.2341 11.6827 80.1345V29.423H77.4519V80.1345C77.4519 82.2341 75.7438 83.9422 73.6442 83.9422Z" fill="#FB3D54" fill-opacity="0.6"/>
<path d="M71.3942 34.6155H17.7404C17.2625 34.6155 16.875 35.003 16.875 35.4809V77.8847C16.875 78.3628 17.2625 78.7501 17.7404 78.7501H71.3942C71.8723 78.7501 72.2596 78.3628 72.2596 77.8847V35.4809C72.2596 35.003 71.8723 34.6155 71.3942 34.6155ZM70.5289 36.3462V72.6924H18.6058V36.3462H70.5289ZM18.6058 77.0193V74.4232H70.5289V77.0193H18.6058Z" fill="#FB3D54" fill-opacity="0.6"/>
<path d="M22.9327 51.923H66.2019C66.68 51.923 67.0673 51.5356 67.0673 51.0576V40.673C67.0673 40.1951 66.68 39.8076 66.2019 39.8076H22.9327C22.4548 39.8076 22.0673 40.1951 22.0673 40.673V51.0576C22.0673 51.5356 22.4548 51.923 22.9327 51.923ZM65.3365 41.5384V50.1922H23.7981V48.4615H34.1827C34.6606 48.4615 35.0481 48.0741 35.0481 47.5961C35.0481 47.118 34.6606 46.7307 34.1827 46.7307H23.7981V41.5384H65.3365Z" fill="#FB3D54" fill-opacity="0.6"/>
</svg>
