<svg width="92" height="92" viewBox="0 0 92 92" fill="none" xmlns="http://www.w3.org/2000/svg">
<g clip-path="url(#clip0)">
<path d="M6.5133 46.0002C6.5133 61.6204 15.5555 75.1194 28.6674 81.5163L9.91655 29.9399C7.73548 34.8478 6.5133 40.2791 6.5133 46.0002ZM72.3584 44.0088C72.3584 39.1317 70.6134 35.7541 69.1167 33.1252C67.1241 29.8746 65.2564 27.1218 65.2564 23.8711C65.2564 20.2435 67.997 16.8667 71.8572 16.8667C72.0315 16.8667 72.1968 16.8885 72.3666 16.8983C65.3731 10.4661 56.0557 6.53884 45.822 6.53884C32.0893 6.53884 20.0074 13.6123 12.9787 24.3262C13.901 24.354 14.7701 24.3735 15.5084 24.3735C19.6199 24.3735 25.9844 23.8726 25.9844 23.8726C28.1034 23.7472 28.3532 26.8717 26.2365 27.1233C26.2365 27.1233 24.107 27.3748 21.7374 27.4995L36.052 70.2445L44.6544 44.3437L38.5301 27.498C36.4133 27.3733 34.408 27.1218 34.408 27.1218C32.2898 26.9971 32.5381 23.7457 34.6563 23.8711C34.6563 23.8711 41.1479 24.372 45.0104 24.372C49.1213 24.372 55.4865 23.8711 55.4865 23.8711C57.607 23.7457 57.856 26.8702 55.7385 27.1218C55.7385 27.1218 53.6046 27.3733 51.2395 27.498L65.4449 69.9194L69.3658 56.7658C71.0651 51.3075 72.3584 47.3871 72.3584 44.0088ZM46.5116 49.4521L34.7177 83.8576C38.2391 84.8968 41.9632 85.4653 45.822 85.4653C50.3995 85.4653 54.7894 84.6708 58.8755 83.2283C58.7701 83.0594 58.6743 82.8799 58.5958 82.6847L46.5116 49.4521ZM80.3138 27.067C80.4828 28.324 80.5785 29.6733 80.5785 31.1248C80.5785 35.1294 79.8336 39.631 77.5897 45.2598L65.5825 80.1113C77.2688 73.2699 85.1292 60.5594 85.1292 46.0009C85.1299 39.1399 83.3842 32.6882 80.3138 27.067ZM45.822 0C20.5564 0 0 20.6355 0 46.0002C0 71.3679 20.5564 92.0026 45.822 92.0026C71.0868 92.0026 91.6462 71.3679 91.6462 46.0002C91.6455 20.6355 71.0868 0 45.822 0ZM45.822 89.8941C21.715 89.8941 2.10104 70.2032 2.10104 46.0002C2.10104 21.7986 21.7142 2.10928 45.822 2.10928C69.9282 2.10928 89.5407 21.7986 89.5407 46.0002C89.5407 70.2032 69.9282 89.8941 45.822 89.8941Z" fill="#00304D"/>
</g>
<defs>
<clipPath id="clip0">
<rect width="92" height="92" fill="white"/>
</clipPath>
</defs>
</svg>
